<svg width="273" height="272" viewBox="0 0 273 272" fill="none" xmlns="http://www.w3.org/2000/svg">
<path fill-rule="evenodd" clip-rule="evenodd" d="M272 1H1V271H272V1ZM0 0V272H273V0H0Z" fill="#111111"/>
<g clip-path="url(#clip0_121_214)">
<path d="M210 116.851H69.6553V120.681H210V116.851Z" fill="#111111"/>
<path d="M63.9196 113.138C64.6085 117.228 68.4905 119.986 72.5903 119.299L207.448 96.6972L205.662 86.0953C204.973 82.0056 201.091 79.2474 196.992 79.9346L69.5572 101.292C65.4574 101.98 62.6923 105.852 63.3811 109.941L63.9196 113.138Z" fill="#111111"/>
<mask id="mask0_121_214" style="mask-type:luminance" maskUnits="userSpaceOnUse" x="63" y="77" width="145" height="42">
<path d="M64.142 111.87C64.8298 115.954 68.7057 118.709 72.7992 118.023L207.448 95.449L205.442 83.5341C204.754 79.4497 200.878 76.695 196.785 77.3812L69.5475 98.7121C65.454 99.3983 62.6932 103.266 63.381 107.35L64.142 111.87Z" fill="white"/>
</mask>
<g mask="url(#mask0_121_214)">
<path d="M64.142 111.87C64.8298 115.954 68.7057 118.709 72.7992 118.023L207.448 95.449L205.442 83.5341C204.754 79.4497 200.878 76.695 196.785 77.3812L69.5475 98.7121C65.454 99.3983 62.6932 103.266 63.381 107.35L64.142 111.87Z" fill="white"/>
<path d="M207.875 95.3513L58.1726 120.681L55.0213 101.793L204.724 76.4637L207.875 95.3513Z" fill="white"/>
<path d="M197.953 96.4255L207.448 94.8737L204.188 76L180.655 79.8458L197.953 96.4255Z" fill="#111111"/>
<path d="M173.151 114.298L192.138 111.032L157.952 76L138.552 79.3364L173.151 114.298Z" fill="#111111"/>
<path d="M137.426 120.681L156.414 117.415L122.227 82.3828L102.828 85.7193L137.426 120.681Z" fill="#111111"/>
<path d="M102.979 127.064L121.966 123.799L87.7793 88.7661L68.3794 92.1026L102.979 127.064Z" fill="#111111"/>
<path d="M67.2543 132.17L86.2415 128.905L52.0552 93.8726L32.6553 97.209L67.2543 132.17Z" fill="#111111"/>
</g>
<path d="M65.8276 141.106H77.7991L86.0338 161.283H86.4489L94.6836 141.106H106.655V195.862H97.244V156.135H96.9672L89.0785 195.584H83.4042L75.5155 155.995H75.2387V195.862C68.2372 196.497 65.995 195.086 65.8276 188.548V141.106Z" fill="#111111"/>
<path d="M115.898 176.851V169.413H117.658C118.691 169.413 119.507 169.333 120.106 169.172C120.716 169 121.186 168.701 121.514 168.276C121.855 167.84 122.143 167.232 122.377 166.451L122.729 165.419L109.207 141.106H119.208L126.744 155.432L132.519 141.106H142.379L129.984 168.655C129.303 170.102 128.493 171.45 127.554 172.702C126.615 173.941 125.447 174.946 124.05 175.715C122.653 176.473 120.922 176.851 118.856 176.851H115.898Z" fill="#111111"/>
<path d="M146.207 196V141.106H161.886C164.64 141.106 166.953 141.473 168.825 142.205C170.708 142.937 172.126 143.972 173.08 145.309C174.045 146.646 174.527 148.221 174.527 150.034C174.527 151.348 174.233 152.546 173.645 153.627C173.068 154.708 172.256 155.615 171.208 156.347C170.16 157.067 168.936 157.567 167.535 157.846V158.195C169.089 158.253 170.502 158.643 171.773 159.364C173.045 160.073 174.057 161.055 174.81 162.31C175.563 163.555 175.552 165.019 175.552 166.705C175.552 168.658 175.422 189.577 174.386 191.1C173.362 192.623 171.902 193.82 170.007 194.692C168.112 195.564 165.852 196 163.227 196H146.207ZM156.024 188.258H160.614C162.262 188.258 164.664 187.188 165.487 186.584C166.312 185.968 165.558 166.647 165.558 165.449C165.558 164.612 165.364 163.903 164.975 163.322C164.587 162.741 164.034 162.299 163.316 161.997C162.609 161.694 161.756 161.543 160.755 161.543H156.024V188.258ZM156.024 155.545H160.049C160.908 155.545 161.668 155.411 162.327 155.144C162.986 154.876 163.498 154.493 163.863 153.993C164.24 153.481 164.428 152.86 164.428 152.127C164.428 151.022 164.028 150.18 163.227 149.599C162.427 149.006 161.415 148.709 160.191 148.709H156.024V155.545Z" fill="#111111"/>
<path d="M178.104 141.106H187.702V176.981H187.978L200.545 141.106H208.692V187.305C209.089 196.031 205.762 196.317 199.095 195.875V158.018H198.888L186.113 195.875H178.104V141.106Z" fill="#111111"/>
<mask id="mask1_121_214" style="mask-type:luminance" maskUnits="userSpaceOnUse" x="65" y="116" width="145" height="20">
<path d="M65.8276 124.185C65.8276 120.135 69.1954 116.851 73.3497 116.851H210V136H65.8276V124.185Z" fill="white"/>
</mask>
<g mask="url(#mask1_121_214)">
<path d="M65.8276 124.185C65.8276 120.135 69.1954 116.851 73.3497 116.851H210V136H65.8276V124.185Z" fill="white"/>
<path d="M210 116.851H56.8967V136H210V116.851Z" fill="white"/>
<path d="M200.219 116.851H210V136H185.759L200.219 116.851Z" fill="#111111"/>
<path d="M173.85 104.085H193.414L164.92 142.383H144.931L173.85 104.085Z" fill="#111111"/>
<path d="M136.85 104.085H156.414L127.92 142.383H107.931L136.85 104.085Z" fill="#111111"/>
<path d="M101.127 104.085H120.69L92.1955 142.383H72.207L101.127 104.085Z" fill="#111111"/>
<path d="M65.4024 104.085H84.9657L56.4714 142.383H36.4829L65.4024 104.085Z" fill="#111111"/>
</g>
<path d="M142.379 188.34H109.207V196H142.379V188.34Z" fill="#111111"/>
</g>
<defs>
<clipPath id="clip0_121_214">
<rect width="148" height="120" fill="white" transform="translate(62 76)"/>
</clipPath>
</defs>
</svg>
