<svg width="273" height="273" viewBox="0 0 273 273" fill="none" xmlns="http://www.w3.org/2000/svg">
<path d="M73.9257 142C72.031 142 70.1548 142 68.2601 142C68.2786 141.878 68.2786 141.757 68.2786 141.757C69.5604 141.615 69.6904 140.682 69.6718 139.507C69.6347 136.264 69.6532 133.041 69.6532 129.797C69.6532 128.622 69.9319 127.264 68 127.304C68.0743 127.203 68.1486 127.101 68.2229 127C70.1176 127 72.031 127 74 127C73.9071 127.162 73.87 127.324 73.8142 127.324C72.3839 127.324 72.4025 128.419 72.4025 129.514C72.4025 132.777 72.4025 136.061 72.4025 139.324C72.4211 141.209 72.4211 141.209 73.9257 142Z" fill="#111111"/>
<path d="M56.0862 141.909C56.0862 140.032 56.0862 138.156 56.0862 136.26C56.1665 136.218 56.2468 136.198 56.327 136.156C56.4274 136.342 56.5879 136.528 56.6481 136.734C56.8889 137.62 57.0093 138.548 57.3303 139.393C57.8721 140.775 58.9155 141.538 60.4204 141.538C62.6878 141.538 63.9118 139.414 62.6476 137.476C62.0457 136.569 61.0424 135.93 60.2197 135.187C59.0359 134.136 57.6112 133.291 56.7083 132.033C55.1833 129.889 56.2468 127.188 58.6948 126.343C60.0191 125.889 61.3635 125.869 62.7078 126.384C63.4703 126.673 64.3933 128.157 65.1157 126.24C65.1157 127.827 65.1157 129.415 65.1157 131.023C64.9953 131.043 64.895 131.064 64.7746 131.085C64.6743 130.714 64.5338 130.342 64.4535 129.971C63.972 127.786 62.6677 126.549 60.922 126.611C60.0191 126.652 59.1563 126.961 58.9355 127.848C58.755 128.631 58.8553 129.58 59.1362 130.342C59.3368 130.899 59.999 131.311 60.5207 131.683C61.6845 132.549 62.9085 133.332 64.0723 134.198C65.6374 135.373 66.3196 137.002 65.8581 138.96C65.4167 140.898 63.9519 141.806 62.1661 141.97C60.9822 142.074 59.7582 141.888 58.5744 141.702C57.7316 141.579 56.8688 140.342 56.0862 141.909Z" fill="#111111"/>
<path fill-rule="evenodd" clip-rule="evenodd" d="M272 1H1V272H272V1ZM0 0V273H273V0H0Z" fill="#111111"/>
<path d="M39.2019 156.855C64.9602 156.855 90.5942 156.855 116.332 156.855C116.332 157.251 116.332 157.584 116.332 158C90.2212 158 64.152 158 38 158C38 142.326 38 126.715 38 111C104.333 111 170.625 111 237 111C237 126.653 237 142.285 237 157.979C230.079 157.979 223.219 157.979 216.277 157.979C216.277 157.646 216.277 157.292 216.277 156.876C222.764 156.876 229.208 156.876 235.736 156.876C235.736 141.973 235.736 127.173 235.736 112.291C170.231 112.291 104.748 112.291 39.2019 112.291C39.2019 127.132 39.2019 141.931 39.2019 156.855Z" fill="#111111"/>
<path d="M151.205 132.735C150.165 135.646 149.232 138.297 148.256 140.947C148.128 141.273 147.874 141.555 147.662 141.86C147.428 141.555 147.11 141.273 146.983 140.925C145.392 136.559 143.843 132.17 142.23 127.825C141.976 127.13 141.446 126.521 141 125.826C142.634 125.826 144.416 125.826 146.219 125.826C144.458 126.565 145.222 127.803 145.583 128.976C146.346 131.344 147.11 133.691 147.895 136.059C148.022 136.45 148.213 136.819 148.68 137.232C149.401 135.385 150.123 133.539 150.823 131.67C150.886 131.496 150.738 131.214 150.632 131.018C149.613 129.389 150.356 127.781 150.674 126.174C150.717 126 151.12 125.717 151.226 125.761C151.459 125.869 151.693 126.13 151.777 126.391C152.647 128.802 153.475 131.214 154.323 133.626C154.811 134.994 155.299 136.363 155.914 138.079C157.59 135.82 158.354 133.582 158.163 131.084C157.972 128.716 157.506 126.369 157.187 124.001C158.651 123.958 160.179 125.261 160.667 127.064C161.197 128.976 161.112 130.953 160.285 132.67C158.842 135.689 157.187 138.622 155.533 141.534C154.981 142.49 154.641 141.773 154.429 141.186C153.475 138.644 152.52 136.102 151.586 133.582C151.502 133.387 151.396 133.169 151.205 132.735Z" fill="#111111"/>
<path d="M121 126.314C121.101 126.063 121.121 126 121.121 126C124.001 126.042 126.902 125.937 129.742 126.21C131.858 126.419 132.965 127.844 133.086 129.604C133.207 131.49 132.119 132.977 130.065 133.711C129.843 133.795 129.622 133.92 129.581 133.941C130.306 134.507 131.173 135.031 131.837 135.764C132.24 136.225 132.301 137 132.482 137.629C132.623 138.09 132.663 138.593 132.784 139.054C133.247 141.065 133.308 141.107 135 140.5C134.517 141.547 133.57 142.092 132.301 141.987C131.173 141.882 130.246 141.442 129.924 140.206C129.601 138.97 129.4 137.713 129.118 136.477C128.614 134.318 127.97 133.899 125.714 134.214C125.714 136.141 125.613 138.111 125.774 140.039C125.814 140.562 126.6 141.002 127.023 141.463C125.19 141.463 123.135 141.463 121.081 141.463C121.101 141.38 121.101 141.254 121.101 141.254C122.471 141.128 122.692 140.185 122.672 138.97C122.632 135.701 122.672 132.433 122.652 129.164C122.692 127.907 123.014 126.377 121 126.314ZM125.714 133.648C128.332 133.878 129.521 133.25 129.823 131.322C129.964 130.484 129.944 129.583 129.823 128.745C129.561 127.069 128.554 126.356 126.902 126.419C126.177 126.44 125.714 126.733 125.714 127.53C125.714 129.562 125.714 131.574 125.714 133.648Z" fill="#111111"/>
<path d="M200.751 127.821C200.97 127.237 201.149 126.805 201.308 126.351C201.388 126.372 201.447 126.372 201.527 126.394C201.527 128.189 201.527 130.006 201.527 131.801C201.447 131.844 201.368 131.866 201.288 131.909C201.169 131.628 201.009 131.368 200.97 131.087C200.671 129.119 199.895 127.584 198.023 126.913C196.132 126.243 194.54 126.827 193.505 128.643C192.091 131.109 192.052 133.877 192.31 136.645C192.41 137.791 192.689 138.937 193.067 139.997C193.525 141.316 194.46 142.138 195.774 142.354C197.944 142.744 198.82 141.922 198.82 139.564C198.82 139.175 198.8 138.786 198.78 138.397C198.74 136.688 198.66 136.602 197.108 136.147C196.968 136.104 196.849 135.974 196.431 135.693C198.7 135.693 200.671 135.693 203 135.693C201.467 136.45 201.786 137.683 201.746 138.764C201.706 140.019 201.746 141.273 201.746 142.549C201.487 142.527 201.368 142.549 201.348 142.506C200.77 141.122 200.77 141.122 199.536 141.857C194.48 144.885 189.145 141.619 189.006 135.347C188.966 133.877 189.125 132.298 189.603 130.914C191.136 126.351 196.033 124.642 199.835 127.173C200.094 127.41 200.372 127.584 200.751 127.821Z" fill="#111111"/>
<path d="M90 126.319C91.6192 126.319 93.4907 126.319 95.3622 126.319C93.9113 126.926 94.2267 127.91 94.6052 128.957C95.5725 131.637 96.4767 134.337 97.423 137.017C97.5492 137.352 97.7174 137.687 97.9487 138.232C101.418 133.94 100.262 129.48 98.937 125C101.355 125.251 103.101 127.01 102.995 129.397C102.932 131.113 102.596 132.956 101.86 134.484C100.661 136.933 99.0422 139.153 97.5702 141.456C97.423 141.707 97.0655 141.812 96.8132 142C96.6239 141.728 96.3926 141.498 96.2875 141.204C94.6893 136.996 93.1332 132.788 91.472 128.601C91.1355 127.784 90.5047 127.094 90 126.319Z" fill="#111111"/>
<path d="M110.896 134.297C110.896 136.628 110.896 138.534 110.896 140.419C110.896 141.047 111.188 141.514 111.854 141.534C112.896 141.534 113.958 141.595 114.958 141.372C116.646 140.986 117 139.527 117.354 138.128C117.438 137.824 117.563 137.52 117.688 137.216C117.792 137.236 117.896 137.277 118 137.297C118 138.838 118 140.378 118 142C114.083 142 110.146 142 106.208 142C106.187 141.939 106.188 141.858 106.167 141.797C106.375 141.716 106.583 141.635 106.792 141.595C107.479 141.432 107.792 141.047 107.792 140.358C107.792 136.466 107.771 132.574 107.792 128.682C107.792 127.608 107.063 127.345 106 127.345C106.063 127.223 106.125 127.122 106.188 127C109.958 127 113.729 127 117.583 127C117.583 128.399 117.583 129.838 117.583 131.541C117.271 131.257 117.063 131.135 117 130.973C116.813 130.385 116.75 129.757 116.563 129.189C116.188 128.054 115.333 127.466 114.125 127.426C110.479 127.304 110.896 127.405 110.896 130.284C110.896 131.541 110.896 132.818 110.896 134.074C113.333 134.642 113.854 132.899 114.375 131.176C114.479 131.257 114.583 131.338 114.687 131.399C114.687 133.385 114.687 135.392 114.687 137.378C114.625 137.419 114.563 137.459 114.5 137.48C114.167 136.77 113.979 135.858 113.438 135.372C112.854 134.865 111.917 134.703 110.896 134.297Z" fill="#111111"/>
<path d="M174.39 129.126C174.39 132.802 174.35 136.161 174.41 139.52C174.43 140.767 174.611 140.872 176.278 141.738C174.933 141.738 173.607 141.738 172.261 141.738C174.049 141.21 173.788 139.689 173.808 138.316C173.808 135.443 173.848 132.548 173.788 129.675C173.768 128.323 174.39 126.591 172 126.379C172.08 126.274 172.161 126.147 172.221 126.041C173.406 126.041 174.611 125.915 175.776 126.105C176.238 126.189 176.6 126.971 176.961 127.478C178.99 130.309 181.019 133.161 183.047 136.013C183.228 136.267 183.449 136.499 183.77 136.879C183.77 133.816 183.791 130.922 183.77 128.027C183.75 126.802 182.746 126.675 181.923 126.189C183.288 126.189 184.634 126.189 186 126.189C183.971 126.802 184.433 128.555 184.413 130.013C184.373 133.943 184.393 137.893 184.393 141.823C183.73 142.203 183.389 141.929 183.007 141.4C180.476 137.724 177.905 134.091 175.354 130.436C175.113 130.077 174.832 129.717 174.39 129.126Z" fill="#111111"/>
<path d="M215.032 126.083C215.032 127.709 215.032 129.295 215.032 130.88C214.931 130.901 214.829 130.901 214.728 130.921C214.526 130.201 214.364 129.48 214.101 128.78C213.514 127.236 212.421 126.433 211.004 126.453C210.013 126.453 209.183 126.824 208.819 127.771C208.454 128.718 208.495 129.727 209.264 130.448C210.094 131.21 211.045 131.848 211.935 132.527C212.806 133.186 213.716 133.804 214.546 134.504C215.943 135.698 216.266 137.304 215.801 139.033C215.356 140.66 214.081 141.422 212.543 141.792C210.944 142.163 209.365 142.06 207.888 141.298C207.22 140.948 206.653 140.619 206.37 141.69C206.35 141.731 206.188 141.751 206.066 141.772C206.066 139.857 206.066 137.963 206.066 136.069C206.168 136.048 206.249 136.027 206.35 136.027C206.431 136.233 206.512 136.419 206.572 136.625C206.815 137.51 206.937 138.436 207.281 139.281C207.847 140.66 208.92 141.401 210.438 141.381C212.664 141.34 213.878 139.281 212.664 137.366C212.097 136.48 211.146 135.822 210.316 135.142C209.466 134.463 208.515 133.907 207.665 133.227C206.208 132.054 205.702 130.489 206.168 128.677C206.593 127.009 207.888 126.206 209.466 126.042C210.539 125.939 211.713 126.021 212.745 126.35C214.162 126.783 214.121 126.906 215.032 126.083Z" fill="#111111"/>
<path d="M84.6851 127.223C84.4983 127.284 84.3114 127.406 84.1246 127.406C83.2526 127.426 82.9412 127.974 82.9412 128.685C82.9204 132.622 82.9204 136.54 82.9412 140.478C82.9412 141.188 83.3564 141.493 84.0415 141.594C87.0519 142.02 88.7751 140.823 89.3979 137.859C89.4602 137.575 89.6055 137.311 89.7093 137.027C89.8132 137.047 89.8962 137.068 90 137.108C90 138.712 90 140.336 90 142C86.1176 142 82.1938 142 78.0623 142C79.8062 141.066 79.8062 141.066 79.8062 139.097C79.8062 135.931 79.7855 132.765 79.8062 129.598C79.827 128.421 79.9516 127.244 78 127.325C78.083 127.223 78.1661 127.122 78.2491 127C80.3668 127 82.5052 127 84.6228 127C84.6436 127.101 84.6644 127.162 84.6851 127.223Z" fill="#111111"/>
<path d="M168.961 142C166.987 142 164.993 142 163 142C163.02 141.858 163.039 141.737 163.059 141.737C164.329 141.616 164.564 140.767 164.544 139.615C164.505 136.562 164.564 133.53 164.524 130.477C164.505 129.163 165.13 127.445 163 127C164.993 127 166.987 127 169 127C168.98 127.142 169 127.263 168.98 127.263C167.436 127.889 167.436 127.889 167.436 129.749C167.436 132.903 167.436 136.057 167.436 139.21C167.417 141.171 167.417 141.171 168.961 142Z" fill="#111111"/>
<path d="M133.02 157.329H133.924V157.947C133.924 158.365 134.064 158.664 134.325 158.864C134.586 159.063 135.028 159.163 135.59 159.163C136.173 159.163 136.574 159.043 136.775 158.804C136.996 158.565 137.096 158.126 137.096 157.449V154H138V157.748C138 158.545 137.799 159.123 137.418 159.482C137.036 159.821 136.373 160 135.47 160C134.627 160 134.004 159.841 133.602 159.522C133.201 159.203 133 158.724 133 158.066V157.329H133.02Z" fill="#0D0909"/>
<path d="M143 160V154H148.746V154.872H143.954V156.367H147.092V157.239H143.954V159.128H149V160H143Z" fill="#0D0909"/>
<path d="M155.13 160L153 154H153.978L155.5 158.381L157.087 154H157.913L159.5 158.381L161.043 154H162L159.891 160H159.196L157.522 155.391L155.848 160H155.13Z" fill="#0D0909"/>
<path d="M166 160V154H171.746V154.872H166.954V156.367H170.092V157.239H166.954V159.128H172V160H166Z" fill="#0D0909"/>
<path d="M185.897 157.375V160H185V154H188.967C189.565 154 190.023 154.146 190.342 154.438C190.661 154.729 190.841 155.146 190.841 155.667C190.841 156.104 190.701 156.458 190.442 156.771C190.183 157.083 189.844 157.271 189.405 157.354L191 160H190.023L188.389 157.375H185.897ZM185.897 156.5H188.947C189.266 156.5 189.485 156.438 189.664 156.292C189.824 156.146 189.904 155.958 189.904 155.688C189.904 155.417 189.824 155.229 189.664 155.083C189.505 154.938 189.266 154.875 188.947 154.875H185.897V156.5Z" fill="#0D0909"/>
<path d="M176 160V154H177.042V159.128H182V160H176Z" fill="#0D0909"/>
<path d="M196.571 159.979V156.927L194 154H195.13L197 156.118L198.831 154H200L197.429 156.927V160H196.571V159.979Z" fill="#0D0909"/>
</svg>
