<svg width="99" height="46" viewBox="0 0 99 46" fill="none" xmlns="http://www.w3.org/2000/svg">
<path d="M87 38C87 34.6863 89.6863 32 93 32V32C96.3137 32 99 34.6863 99 38V38C99 41.3137 96.3137 44 93 44V44C89.6863 44 87 41.3137 87 38V38Z" fill="#FF0099"/>
<path d="M51 6.30208V0H95V6.30208H80.5915L73.1428 44H66.119L73.5677 6.30208H51Z" fill="black"/>
<path d="M11.8299 20.0453L11.6665 23.2067L11.8299 26.4181H7.00774V20.0453H11.8299ZM7.00774 0.579343V45.0731H1.39243e-06L0 0.579343H7.00774ZM32.3331 46C28.2156 46 24.6028 45.0441 21.4949 43.1322C18.4067 41.2204 15.9916 38.5458 14.2496 35.1083C12.5273 31.6709 11.6662 27.6541 11.6662 23.0579C11.6662 18.4232 12.5273 14.3774 14.2496 10.9207C15.9916 7.46389 18.4067 4.7796 21.4949 2.86776C24.6028 0.955919 28.2156 0 32.3331 0C36.4506 0 40.0535 0.955919 43.1416 2.86776C46.2496 4.7796 48.6647 7.46389 50.3869 10.9207C52.129 14.3774 53 18.4232 53 23.0579C53 27.6541 52.129 31.6709 50.3869 35.1083C48.6647 38.5458 46.2496 41.2204 43.1416 43.1322C40.0535 45.0441 36.4506 46 32.3331 46ZM32.3331 39.8589C35.4609 39.8589 38.0343 39.0768 40.0535 37.5126C42.0727 35.9484 43.5673 33.8917 44.5373 31.3426C45.5073 28.7934 45.9923 26.0319 45.9923 23.0579C45.9923 20.084 45.5073 17.3128 44.5373 14.7443C43.5673 12.1759 42.0727 10.0999 40.0535 8.51637C38.0343 6.93283 35.4609 6.14106 32.3331 6.14106C29.2054 6.14106 26.6319 6.93283 24.6127 8.51637C22.5935 10.0999 21.0989 12.1759 20.1289 14.7443C19.1589 17.3128 18.674 20.084 18.674 23.0579C18.674 26.0319 19.1589 28.7934 20.1289 31.3426C21.0989 33.8917 22.5935 35.9484 24.6127 37.5126C26.6319 39.0768 29.2054 39.8589 32.3331 39.8589Z" fill="black"/>
</svg>
