<svg width="274" height="272" viewBox="0 0 274 272" fill="none" xmlns="http://www.w3.org/2000/svg">
<path fill-rule="evenodd" clip-rule="evenodd" d="M273 1H1V271H273V1ZM0 0V272H274V0H0Z" fill="#111111"/>
<path d="M128.211 193.744C128.211 193.744 138.249 203.066 149.156 192.407C150.106 191.48 151.089 190.588 152.131 189.768C162.894 181.295 220.212 132.759 188.428 83.1118C182.935 74.5314 172.849 69.9954 162.896 71.9406C152.67 73.9395 140.484 81.7935 132.65 105.215C132.65 105.215 92.4378 65.8319 79.1533 112.873C77.7743 117.756 77.6032 122.913 78.6968 127.868C81.4314 140.254 91.6258 163.85 128.211 193.745V193.744Z" fill="#E93986"/>
<path d="M138.038 197.876C136.865 197.876 135.684 197.724 134.503 197.42C130.664 196.43 128.171 194.194 127.975 194.015C111.77 180.773 99.1485 167.457 90.4615 154.44C87.0455 149.32 84.2362 144.235 82.1129 139.325C80.4126 135.394 79.1456 131.565 78.3461 127.946C77.2486 122.976 77.4081 117.731 78.8073 112.777C82.4434 99.9012 88.4525 92.2642 96.6674 90.0763C100.458 89.0667 104.728 89.2277 109.359 90.5538C113.045 91.6093 116.967 93.4021 121.019 95.8824C126.768 99.4018 131.166 103.341 132.489 104.572C136.061 94.0873 140.816 85.9191 146.625 80.288C151.368 75.6905 156.818 72.7637 162.825 71.5901C167.758 70.6264 172.825 71.2004 177.477 73.2522C182.091 75.2868 185.981 78.6297 188.728 82.92C192.554 88.8972 195.264 95.1544 196.781 101.52C198.175 107.366 198.597 113.436 198.034 119.564C197.066 130.091 193.199 141.026 186.54 152.066C181.51 160.404 174.958 168.713 167.067 176.761C160.694 183.261 155.112 187.876 152.352 190.049C151.414 190.788 150.449 191.643 149.405 192.664C146.871 195.139 144.168 196.753 141.369 197.46C140.27 197.738 139.157 197.876 138.037 197.876H138.038ZM128.454 193.482C128.479 193.504 130.961 195.775 134.709 196.733C136.896 197.291 139.084 197.301 141.211 196.761C143.879 196.083 146.468 194.532 148.905 192.151C149.968 191.113 150.951 190.241 151.909 189.486C154.656 187.324 160.212 182.731 166.557 176.259C174.409 168.252 180.926 159.987 185.928 151.696C192.531 140.749 196.364 129.916 197.322 119.498C197.878 113.448 197.462 107.455 196.086 101.685C194.587 95.3986 191.909 89.2153 188.126 83.3057C185.455 79.1353 181.674 75.885 177.189 73.9078C172.672 71.916 167.753 71.3575 162.964 72.2932C157.095 73.4404 151.766 76.3026 147.124 80.8028C141.3 86.448 136.544 94.701 132.989 105.331L132.808 105.874L132.399 105.473C132.35 105.426 127.451 100.659 120.632 96.486C116.638 94.0414 112.776 92.2766 109.154 91.2406C104.651 89.9526 100.512 89.794 96.8502 90.7693C88.8974 92.888 83.0586 100.358 79.4964 112.972C78.1291 117.813 77.9735 122.937 79.0453 127.792C79.8347 131.367 81.0877 135.152 82.7701 139.041C84.8763 143.912 87.6646 148.959 91.0573 154.042C99.707 167.003 112.283 180.268 128.437 193.468L128.454 193.483L128.454 193.482Z" fill="#E93986"/>
<path d="M184.909 107.323C184.909 107.323 184.902 107.327 184.898 107.329C184.732 107.165 184.587 106.983 184.461 106.784C181.371 101.817 179.919 95.767 177.989 90.2782C177.601 89.1738 176.717 88.3112 176.382 87.1881C175.77 85.1379 175.373 85.0329 175.032 83.4828C174.925 82.9951 174.703 82.8046 174.22 82.6918C174.017 82.6443 173.253 82.7828 173.062 82.8676C172.268 83.2199 172.426 83.6928 172.449 84.5662C172.473 85.4397 172.845 86.2618 173.243 87.038C175.297 91.0537 176.271 95.6939 177.645 99.9787C178.643 103.092 179.677 106.163 180.633 109.391C180.959 110.491 180.807 110.761 180.887 111.991C180.973 113.304 181.375 115.529 181.516 116.839C181.607 117.689 181.776 119.338 181.819 120.191C181.966 123.147 181.377 124.033 182.338 127.037C182.647 128.001 183.46 129.379 184.466 129.395C186.246 129.423 185.727 129.356 186.493 128.999C187.648 128.462 189.067 128.223 190.293 127.885C192.834 127.183 195.398 126.563 197.978 126.027C200.232 125.559 201.744 123.548 202.12 121.259C202.178 120.907 202.152 120.54 202.152 120.18C202.149 115.151 200.621 112.369 198.3 107.915C196.365 104.204 194.697 103.434 190.756 104.609C190.459 104.697 190.162 104.786 189.865 104.874C187.984 105.435 186.571 106.447 184.908 107.323H184.909Z" fill="#E93986"/>
<path d="M185.056 133.698C184.843 133.698 184.625 133.695 184.401 133.691C181.104 133.64 179.025 130.779 178.246 128.346C177.373 125.617 177.447 123.925 177.513 122.432C177.541 121.794 177.567 121.192 177.528 120.403C177.502 119.863 177.395 118.703 177.244 117.298C177.195 116.845 177.1 116.201 177 115.519C176.834 114.389 176.662 113.22 176.6 112.27C176.565 111.745 176.563 111.35 176.561 111.062C176.561 110.958 176.56 110.831 176.558 110.779C176.554 110.759 176.541 110.707 176.513 110.611C175.839 108.334 175.106 106.079 174.397 103.897C174.12 103.045 173.834 102.163 173.553 101.29C173.142 100.008 172.767 98.7039 172.405 97.4423C171.526 94.3849 170.697 91.497 169.417 88.9941C168.818 87.8228 168.2 86.3948 168.154 84.6798C168.151 84.595 168.147 84.5157 168.143 84.441C168.115 83.9051 168.069 83.0091 168.421 81.9957C168.754 81.0398 169.527 79.7331 171.319 78.9382C171.832 78.7111 173.643 78.1441 175.196 78.5058C177.3 78.9966 178.771 80.4736 179.23 82.5596C179.306 82.908 179.345 82.9928 179.532 83.3988C179.777 83.9323 180.11 84.6611 180.489 85.9211C180.544 86.0393 180.717 86.3139 180.845 86.5161C181.205 87.0862 181.697 87.8679 182.043 88.851C182.543 90.2712 183.011 91.7272 183.464 93.1358C184.422 96.1116 185.341 98.9691 186.533 101.556C187.175 101.259 187.871 100.983 188.639 100.754L189.529 100.488C191.608 99.8682 194.337 99.309 197.021 100.497C199.626 101.649 201.11 104.004 202.112 105.926L202.307 106.3C204.621 110.734 206.448 114.236 206.451 120.174C206.451 120.235 206.453 120.296 206.454 120.357C206.46 120.733 206.47 121.301 206.363 121.953C205.668 126.18 202.72 129.43 198.854 130.233C196.375 130.748 193.88 131.351 191.439 132.025C191.02 132.141 190.608 132.241 190.21 132.337C189.522 132.504 188.812 132.676 188.37 132.866C187.209 133.597 186.211 133.698 185.056 133.698V133.698ZM185.204 112.03C185.265 112.641 185.391 113.497 185.504 114.267C185.617 115.034 185.724 115.758 185.791 116.379C185.891 117.309 186.065 119.012 186.113 119.977C186.172 121.168 186.133 122.078 186.1 122.809C186.068 123.531 186.048 123.993 186.134 124.539C186.848 124.308 187.544 124.14 188.189 123.983C188.537 123.899 188.864 123.82 189.151 123.741C191.769 123.017 194.446 122.371 197.106 121.818C197.38 121.761 197.727 121.319 197.862 120.665C197.862 120.618 197.86 120.557 197.859 120.508C197.858 120.399 197.855 120.29 197.855 120.181C197.853 116.346 196.795 114.318 194.686 110.276L194.489 109.9C194.002 108.964 193.689 108.56 193.542 108.398C193.337 108.407 192.871 108.462 191.986 108.726L191.095 108.992C190.219 109.253 189.418 109.713 188.403 110.294C187.935 110.563 187.45 110.84 186.918 111.121L185.203 112.03H185.204Z" fill="#E93986"/>
<path d="M84.6672 114.967C83.4406 116.426 82.9678 118.701 81.7412 120.159C80.1903 122.003 79.7166 122.198 77.6921 124.575C76.513 125.96 77.017 125.255 74.6556 127.973C74.4184 128.246 73.006 129.481 72.7042 129.681C72.4001 129.881 72.2562 130.251 72.1551 130.602C71.8611 131.629 71.7856 132.777 72.2632 133.731C72.7408 134.686 73.8919 135.345 74.8952 134.997C75.2794 134.863 75.6061 134.603 75.9234 134.347C78.7242 132.097 81.5242 129.847 84.325 127.596C85.3236 126.794 86.3223 125.991 87.2588 125.116C89.3471 123.163 90.4671 117.112 93.4016 116.887C93.845 119.47 92.3369 117.888 92.2015 120.498C92.0919 122.611 91.7854 129.362 91.2822 131.417C90.0175 136.572 86.3223 141.162 86.649 146.516C86.677 146.974 86.6871 147.462 86.9912 147.804C87.5823 148.466 89.2786 148.272 89.8402 148.017C93.7166 146.261 94.9611 141.965 95.4596 137.714C95.742 135.307 96.3945 120.66 97.9376 118.8C99.0685 123.062 102.925 140.612 104.056 144.874C104.533 146.673 105.598 148.899 107.432 148.661C109.911 147.7 111.297 144.899 111.409 142.228C111.521 139.555 110.61 136.96 109.712 134.442C108.155 130.08 106.599 125.719 105.043 121.356C104.126 118.787 100.78 113.212 102.257 110.504C103.229 108.724 108.55 108.945 110.272 108.054C113.098 106.592 115.825 105.025 118.317 103.43C118.921 103.043 118.769 102.125 118.072 101.962C116.684 101.639 114.15 101.434 112.807 101.894C109.353 103.075 105.9 104.256 102.446 105.437C102.842 101.24 104.014 97.1127 103.969 92.9376C103.957 91.7514 102.845 90.9083 101.708 91.221C100.221 91.6293 98.6361 92.5183 98.4626 93.4454C98.0247 95.7928 95.3375 104.721 94.7511 107.035C93.2632 104.619 93.0174 97.0294 91.5303 94.6137C90.793 93.4159 90.009 92.1714 88.8011 91.4598C86.4934 90.0987 85.9396 90.1057 83.4749 91.151C82.6139 91.5158 81.644 92.0073 81.4418 92.9251C81.3352 93.4089 81.4744 93.9106 81.6393 94.3772C82.1519 95.834 84.661 97.3522 85.641 98.5414C86.3138 99.3573 86.7089 100.061 87.328 100.92C87.9066 101.723 91.0605 109.431 90.0269 109.753" fill="#E93986"/>
<path d="M107.174 153.333C104.282 153.333 100.983 151.451 99.5554 146.068C99.3983 145.476 99.1961 144.66 98.9589 143.673C98.7147 144.422 98.4393 145.124 98.1298 145.782C96.7064 148.81 94.5637 150.988 91.7613 152.259C90.4702 152.843 89.0305 152.91 88.4394 152.91C88.4285 152.91 88.4184 152.91 88.4083 152.91C85.8354 152.899 84.3273 151.812 83.5161 150.901C82.1527 149.371 82.0508 147.619 82.0064 146.871L82.0025 146.799C81.7311 142.351 83.4049 138.577 84.8811 135.247C85.3703 134.143 85.8424 133.079 86.2197 132.049L78.8417 137.977C78.368 138.358 77.5747 138.995 76.4251 139.395C74.7467 139.978 72.9165 139.839 71.2723 139.002C69.9089 138.308 68.7827 137.176 68.1013 135.814C67.1524 133.917 67.0078 131.672 67.6821 129.32C68.113 127.818 68.8985 126.66 70.0201 125.878C70.2799 125.672 70.9713 125.067 71.2288 124.822C72.5424 123.311 73.0013 122.825 73.3381 122.469C73.5668 122.227 73.7044 122.081 74.1493 121.558C75.3137 120.191 76.023 119.467 76.6491 118.83C77.1547 118.314 77.5544 117.907 78.1805 117.163C78.3835 116.922 78.7219 116.177 78.9692 115.635C79.4654 114.544 80.083 113.188 81.1065 111.97L86.7213 116.692C86.9282 116.352 87.1475 116.019 87.3817 115.698C88.5421 114.107 89.8068 113.223 90.9625 112.745L88.6448 105.308C86.2453 106.055 85.4605 108.395 85.5897 109.423C85.459 108.382 84.0232 104.615 83.4267 103.463C83.2042 103.148 83.0113 102.86 82.8379 102.601C82.5548 102.178 82.3308 101.844 82.0601 101.513C81.9084 101.345 81.4153 100.928 81.0879 100.651C79.7081 99.4825 77.9915 98.0288 77.2503 95.9226C76.9244 94.997 76.534 93.576 76.898 91.9225C77.6361 88.5702 80.664 87.2861 81.6595 86.8638C83.1638 86.226 84.661 85.6614 86.439 85.7524C88.3134 85.8488 89.8037 86.6429 91.1694 87.4487C92.7055 88.3548 93.7828 89.6101 94.5777 90.7465C95.0622 89.9088 95.8377 89.0214 97.0735 88.2241C98.3219 87.4191 99.6145 86.9672 100.478 86.73C102.421 86.1965 104.455 86.5846 106.061 87.7948C107.67 89.0081 108.606 90.8639 108.627 92.8861C108.648 94.8446 108.451 96.7252 108.183 98.553L111.303 97.4859C114.543 96.3776 118.945 97.3825 119.131 97.4252C121.275 97.9246 122.9 99.6481 123.273 101.817C123.646 103.988 122.687 106.16 120.829 107.349C118.21 109.025 115.379 110.652 112.415 112.187C111.068 112.884 109.501 113.118 107.842 113.367C107.566 113.408 107.202 113.462 106.832 113.524C106.873 113.656 106.919 113.799 106.974 113.955C107.343 115.017 107.875 116.191 108.344 117.227C108.76 118.144 109.152 119.01 109.43 119.789L114.099 132.875C115.042 135.516 116.215 138.803 116.063 142.42C115.974 144.555 115.376 146.631 114.336 148.422C113.084 150.579 111.279 152.161 109.117 153L108.592 153.203L108.035 153.275C107.755 153.312 107.467 153.33 107.176 153.33L107.174 153.333ZM75.4008 133.476C75.3533 133.51 75.309 133.541 75.2693 133.567C75.3144 133.537 75.358 133.507 75.4008 133.476ZM70.1445 125.792C70.1445 125.792 70.1414 125.795 70.1399 125.795C70.1414 125.795 70.143 125.793 70.1445 125.792Z" fill="#E93986"/>
<path d="M103.858 151.799C105.112 149.274 102.697 147.78 100.891 147.488C99.7941 147.311 99.7653 147.924 99.3453 148.959C99.1485 149.443 99.3725 149.857 99.3453 150.38C99.2955 151.336 99.3469 157.588 98.7814 158.331C98.0402 157.694 95.8453 151.542 95.1749 150.68C95.0668 150.541 94.7906 150.269 94.6491 150.127C93.5213 148.991 91.7573 148.704 92.294 150.947C92.3445 151.159 92.3928 151.262 92.5763 151.515C92.9178 151.986 92.9566 151.83 93.239 152.398C93.365 152.652 93.239 152.682 93.5734 153.471C93.631 153.605 93.68 153.77 93.7546 153.912C94.3434 155.025 94.947 156.13 95.5241 157.25C96.4878 159.12 95.4028 161.308 94.2462 162.924C93.8122 163.53 93.2779 164.055 92.7466 164.576C91.6718 165.632 90.5976 166.687 89.5228 167.742C87.2501 169.973 84.8996 172.327 83.9033 175.362C83.8582 175.5 83.8154 175.649 83.8543 175.789C83.9819 176.249 84.6702 176.084 85.0684 175.825C86.0531 175.183 87.037 174.541 88.0216 173.9C88.6244 173.507 89.2326 173.109 89.7281 172.587C90.0058 172.294 90.243 171.967 90.4895 171.647C91.258 170.651 93.2786 169.026 93.9864 167.985C94.9314 166.596 97.7828 163.676 98.2168 163.726C99.0443 163.821 96.2645 169.705 96.6169 170.453C96.8354 170.915 96.8743 171.443 97.0516 171.923C97.229 172.403 97.628 172.872 98.1366 172.858C98.832 172.84 99.9878 172.623 100.289 171.992C101.089 170.314 101.994 168.374 101.984 166.512C101.981 166.062 101.928 163.941 102.818 164.65C103.599 165.271 104.288 166.009 104.857 166.832C105.538 167.817 106.58 168.439 107.078 169.524C107.742 170.971 108.168 172.599 108.641 174.118C109.622 177.271 110.437 180.475 111.08 183.714C111.44 185.531 112.285 187.302 112.919 189.044C113.142 189.657 113.623 190.9 114.408 190.974C114.953 191.026 115.372 190.998 115.8 190.733C116.228 190.469 116.292 190.16 116.694 189.836C117.521 189.167 116.301 187.113 116.3 186.181C116.299 184.712 116.078 183.25 115.769 181.818C115.229 179.324 114.693 176.664 113.95 174.237C113.616 173.148 113.299 172.051 112.948 170.967C112.659 170.074 112.151 169.395 111.724 168.558C110.723 166.596 110.027 164.986 108.467 164.041C103.039 160.749 108.9 160.924 110.498 159.13C111.323 158.203 112.148 157.276 112.973 156.349C113.212 156.08 113.457 155.802 113.587 155.466C114.039 154.296 113.828 152.182 112.275 152.344C111.157 152.461 110.327 154.024 109.613 154.742C108.736 155.624 104.945 159.813 103.265 159.231C103.173 159.199 103.088 159.153 103.009 159.092C102.741 158.882 102.677 158.499 102.693 158.157C102.735 157.209 103.186 156.35 103.276 155.413" fill="#E93986"/>
<path d="M114.81 194.935C114.528 194.935 114.27 194.918 114.04 194.897C113.122 194.81 111.39 194.357 110.107 192.289C109.682 191.605 109.409 190.915 109.219 190.391C109.058 189.948 108.875 189.488 108.682 189.001C108.149 187.656 107.545 186.133 107.217 184.481C106.604 181.392 105.818 178.3 104.881 175.29C104.773 174.942 104.668 174.592 104.566 174.254C104.436 173.82 104.308 173.395 104.178 172.986C104.064 173.229 103.952 173.463 103.846 173.687C102.95 175.565 100.855 176.727 98.241 176.796C96.3222 176.847 94.5932 175.763 93.6653 173.984C93.6427 174.01 93.6241 174.033 93.6085 174.053C93.5673 174.106 93.5268 174.159 93.4856 174.213C93.2507 174.521 92.9583 174.904 92.5873 175.296C91.7691 176.158 90.884 176.735 90.1723 177.2L87.2191 179.125C85.8105 180.043 84.1181 180.268 82.6916 179.729C81.3904 179.238 80.4306 178.185 80.0581 176.842C79.698 175.543 80.0456 174.482 80.16 174.134C81.4783 170.12 84.4082 167.243 86.7625 164.931L89.9864 161.766C90.408 161.352 90.807 160.961 91.0426 160.63C91.6851 159.732 91.8974 159.145 91.9448 158.905C91.6158 158.269 91.2791 157.641 90.9252 156.978C90.7066 156.57 90.4888 156.162 90.2726 155.753C90.1054 155.437 90.0035 155.164 89.9428 155.001L89.9327 154.975C89.7958 154.65 89.6978 154.376 89.624 154.137C89.5493 154.045 89.47 153.942 89.3867 153.828C89.0352 153.342 88.6797 152.769 88.4635 151.865C88.2193 150.844 88.1897 149.928 88.3733 149.063C88.665 147.692 89.477 146.574 90.6607 145.914C92.3088 144.996 94.3808 145.179 96.1651 146.316C96.3953 145.837 96.7235 145.305 97.2376 144.814C97.8762 144.205 99.2808 143.238 101.519 143.599C103.56 143.929 106.192 145.156 107.453 147.609C107.904 148.487 108.134 149.426 108.145 150.385C108.999 149.505 110.207 148.599 111.866 148.426C113.686 148.236 115.426 148.976 116.52 150.406C118.011 152.354 117.968 155.063 117.264 156.886C116.874 157.894 116.275 158.567 115.918 158.969L113.442 161.75C113.194 162.028 112.929 162.274 112.653 162.494C113.672 163.672 114.344 165.004 114.962 166.233C115.051 166.409 115.141 166.588 115.234 166.77C115.329 166.956 115.45 167.165 115.578 167.387C115.934 167.999 116.376 168.762 116.697 169.756C116.943 170.519 117.173 171.28 117.394 172.016C117.501 172.373 117.608 172.729 117.717 173.085C118.413 175.356 118.92 177.722 119.41 180.008C119.48 180.337 119.55 180.663 119.62 180.988C120.015 182.813 120.212 184.375 120.237 185.872C120.272 185.987 120.321 186.14 120.358 186.253C120.545 186.833 120.777 187.554 120.874 188.352C121.164 190.724 120.027 192.133 119.355 192.744C119.12 193.041 118.66 193.599 117.873 194.086C116.758 194.775 115.676 194.937 114.81 194.937V194.935ZM103.157 155.398L104.651 155.543C104.62 155.531 104.588 155.519 104.557 155.508C103.965 155.303 103.457 155.329 103.158 155.388C103.158 155.391 103.158 155.395 103.158 155.398H103.157ZM103.262 151.503C103.262 151.53 103.262 151.556 103.261 151.583C103.239 153.074 103.209 154.3 103.161 155.32C103.401 155.168 103.833 154.858 104.499 154.262C105.036 153.781 105.547 153.273 105.966 152.844L103.262 151.502L103.262 151.503ZM100.555 151.401C100.563 151.401 100.571 151.401 100.58 151.401C101.088 151.401 101.639 151.224 102.12 150.935L100.329 150.046C100.171 150.401 100.297 151.059 100.555 151.401Z" fill="#E93986"/>
<path d="M178.599 164.733C179.428 164.931 180.749 164.236 181.362 163.884C182.576 163.189 183.572 162.177 184.622 161.266C186.882 159.306 189.611 157.712 191.032 155.071C192.46 152.416 192.232 148.978 190.58 146.458C188.928 143.937 185.959 142.388 182.961 142.338C182.13 142.324 181.295 142.415 180.47 142.31C179.646 142.204 178.803 141.862 178.33 141.174C177.772 140.363 177.851 139.286 177.613 138.33C177.4 137.473 176.509 136.35 175.545 136.831C174.555 137.325 174.365 139.172 174.426 140.106C174.503 141.29 174.871 142.438 174.988 143.619C175.222 145.996 176.235 149.04 176.309 151.428C176.349 152.712 176.687 153.96 176.745 155.25C176.81 156.733 176.75 158.221 176.889 159.702C176.986 160.724 177.177 161.736 177.46 162.722C177.582 163.149 177.956 164.394 178.327 164.623C178.409 164.673 178.501 164.71 178.599 164.733Z" fill="#E93986"/>
<path d="M178.907 169.064C178.458 169.064 178.022 169.014 177.598 168.912C177.054 168.782 176.54 168.569 176.072 168.281C174.48 167.298 173.812 165.597 173.328 163.905C172.972 162.666 172.731 161.387 172.61 160.105C172.507 159.02 172.495 158.003 172.485 157.02C172.478 156.466 172.472 155.943 172.45 155.44C172.432 155.044 172.359 154.556 172.279 154.039C172.167 153.308 172.041 152.48 172.012 151.561C171.984 150.624 171.69 149.273 171.407 147.966C171.127 146.675 170.838 145.341 170.71 144.041C170.676 143.705 170.591 143.281 170.502 142.832C170.359 142.116 170.196 141.305 170.136 140.386C170.07 139.368 170.176 138.222 170.427 137.24C171.07 134.722 172.521 133.537 173.626 132.986C175.089 132.255 176.784 132.231 178.275 132.919C180.292 133.85 181.41 135.79 181.784 137.295C181.85 137.562 181.9 137.816 181.939 138.054C181.949 138.054 181.96 138.054 181.97 138.053C182.287 138.044 182.646 138.034 183.031 138.04C187.502 138.115 191.772 140.438 194.173 144.102C196.722 147.99 196.974 153.095 194.815 157.108C193.339 159.852 191.09 161.612 189.105 163.165C188.508 163.632 187.944 164.073 187.436 164.514C187.227 164.694 187.013 164.887 186.786 165.091C185.871 165.914 184.833 166.848 183.498 167.613C181.803 168.585 180.289 169.064 178.906 169.064H178.907ZM179.901 146.57C180.235 148.121 180.556 149.716 180.605 151.295C180.617 151.695 180.695 152.203 180.776 152.74C180.881 153.426 181 154.202 181.038 155.06C181.067 155.703 181.074 156.323 181.08 156.922C181.087 157.516 181.093 158.088 181.12 158.628C181.34 158.43 181.568 158.226 181.806 158.02C182.478 157.437 183.155 156.908 183.809 156.396C185.256 155.264 186.624 154.193 187.246 153.036C187.911 151.799 187.804 150.063 186.985 148.814C186.135 147.518 184.527 146.663 182.888 146.636C182.694 146.633 182.458 146.639 182.209 146.646C181.578 146.663 180.791 146.685 179.922 146.573C179.915 146.573 179.908 146.572 179.9 146.57L179.901 146.57Z" fill="#E93986"/>
<path d="M84.5879 114.896C83.3613 116.354 82.8884 118.63 81.6619 120.088C80.111 121.932 79.6373 122.126 77.6127 124.504C76.4336 125.889 76.9376 125.184 74.5763 127.901C74.3391 128.174 72.9266 129.41 72.6249 129.609C72.3207 129.81 72.1769 130.179 72.0757 130.531C71.7817 131.558 71.7063 132.706 72.1839 133.66C72.6614 134.614 73.8125 135.274 74.8159 134.925C75.2001 134.792 75.5267 134.532 75.8441 134.276C78.6449 132.026 81.4449 129.776 84.2456 127.525C85.2443 126.723 86.243 125.919 87.1794 125.044C89.2677 123.091 90.3877 117.04 93.3223 116.816C92.7965 117.581 92.2575 117.817 92.1222 120.427C92.0125 122.54 91.7061 129.291 91.2029 131.345C89.9382 136.501 86.243 141.091 86.5696 146.444C86.5976 146.902 86.6077 147.391 86.9119 147.732C87.503 148.395 89.1993 148.2 89.7609 147.946C93.6373 146.19 94.8817 141.893 95.3803 137.643C95.6626 135.236 96.3152 120.589 97.8583 118.729C98.9892 122.991 102.845 140.541 103.976 144.803C104.454 146.602 105.519 148.828 107.353 148.589C109.831 147.629 111.217 144.828 111.329 142.156C111.441 139.485 110.531 136.888 109.632 134.371C108.076 130.009 106.52 125.647 104.963 121.285C104.046 118.716 100.701 113.141 102.178 110.433C103.15 108.653 108.471 108.874 110.193 107.983C113.019 106.521 115.746 104.954 118.238 103.358C118.841 102.972 118.69 102.053 117.993 101.891C116.605 101.567 114.071 101.363 112.728 101.822C109.274 103.004 105.82 104.184 102.366 105.366C102.763 101.169 103.934 97.0414 103.89 92.8663C103.878 91.6802 102.765 90.837 101.629 91.1497C100.142 91.558 98.5567 92.447 98.3833 93.3742C97.9454 95.7215 95.2582 104.65 94.6717 106.963C93.1839 104.548 92.9381 96.9582 91.451 94.5424C90.7136 93.3446 89.9296 92.1002 88.7217 91.3885C86.4141 90.0274 85.8603 90.0344 83.3955 91.0797C82.5345 91.4445 81.5646 91.936 81.3624 92.8538C81.2559 93.3376 81.3951 93.8393 81.56 94.3059C82.0725 95.7627 84.5816 97.2809 85.5616 98.4702C86.2344 99.286 86.6295 99.9899 87.2486 100.849C87.8273 101.651 90.9812 109.36 89.9475 109.682" fill="#FDF6F6"/>
<path d="M119.82 123.017C119.512 127.071 119.205 131.125 118.898 135.179C118.68 138.056 118.49 141.092 119.745 143.687C122.785 149.97 127.31 137.944 128.343 135.998C128.742 135.247 129.14 134.497 129.538 133.746C131.21 130.593 132.883 127.44 134.511 124.264C137.201 119.016 139.786 113.666 141.354 107.974C142.46 108.471 143.066 109.718 143.211 110.929C143.355 112.139 143.132 113.36 143.05 114.576C142.899 116.792 143.22 119.009 143.54 121.207C144.132 125.289 144.726 129.37 145.318 133.452C145.484 134.591 145.667 135.776 146.325 136.717C146.982 137.658 148.268 138.263 149.3 137.768C149.865 137.496 150.252 136.958 150.59 136.427C151.146 135.554 151.646 134.623 151.846 133.606C152.077 132.431 151.893 131.217 151.709 130.033C150.207 120.402 148.706 110.772 147.205 101.142C147.026 99.9959 146.833 98.8122 146.204 97.8415C145.575 96.8708 144.38 96.17 143.273 96.4858C142.248 96.7783 141.627 97.794 141.105 98.7289C139.339 101.889 137.573 105.048 135.807 108.208C134.173 111.133 132.536 114.057 131.017 117.045C130.183 118.688 129.422 120.362 128.636 122.032C127.954 123.463 126.633 126.674 125.136 127.221C124.417 121.579 124.493 115.835 125.361 110.214C125.501 109.314 125.658 108.389 125.449 107.503C125.24 106.617 124.555 105.775 123.654 105.699C122.151 105.573 121.325 107.412 121.07 108.909C120.746 110.802 120.601 112.72 120.455 114.635C120.244 117.429 120.032 120.222 119.82 123.016L119.82 123.017Z" fill="#FDF6F6"/>
<path d="M150.155 99.3739C150.183 99.398 150.212 99.4221 150.242 99.4455C152.649 97.4256 155.33 95.7393 158.188 94.449C159.366 100.233 160.544 106.016 161.722 111.8C162.793 117.055 164.442 122.514 164.648 127.865C164.707 129.387 164.229 132.194 166.565 132.218C167.716 132.23 168.715 131.364 169.3 130.365C170.917 127.605 170.087 124.11 169.212 121.03C166.688 112.143 164.165 103.256 161.642 94.3681C161.512 93.9077 161.39 93.378 161.652 92.9782C161.824 92.7146 162.126 92.573 162.415 92.4501C164.448 91.5837 166.597 90.9957 168.785 90.7056C169.432 89.9457 170.519 88.5768 168.824 86.9769C163.092 86.0023 157.63 89.437 152.815 92.7177C151.653 93.5095 150.448 94.3471 149.771 95.5838C149.111 96.7878 149.132 98.4865 150.155 99.3747V99.3739Z" fill="#FDF6F6"/>
<path d="M184.721 107.336C184.721 107.336 184.713 107.34 184.709 107.342C184.543 107.177 184.398 106.995 184.273 106.797C181.182 101.83 179.73 95.7797 177.8 90.2909C177.412 89.1865 176.528 88.3239 176.193 87.2008C175.581 85.1506 175.184 85.0456 174.844 83.4955C174.736 83.0078 174.515 82.8173 174.031 82.7045C173.829 82.657 173.064 82.7955 172.873 82.8803C172.079 83.2326 172.237 83.7055 172.261 84.5789C172.284 85.4524 172.656 86.2745 173.054 87.0507C175.108 91.0664 176.083 95.7066 177.456 99.9914C178.454 103.105 179.488 106.175 180.444 109.404C180.77 110.504 180.619 110.774 180.699 112.004C180.784 113.317 181.186 115.541 181.327 116.852C181.418 117.701 181.588 119.35 181.63 120.203C181.777 123.16 181.189 124.046 182.149 127.049C182.458 128.014 183.271 129.391 184.277 129.408C186.057 129.436 185.538 129.369 186.304 129.012C187.459 128.474 188.878 128.236 190.104 127.897C192.645 127.196 195.209 126.576 197.79 126.04C200.043 125.572 201.555 123.561 201.931 121.271C201.989 120.92 201.963 120.553 201.963 120.193C201.96 115.163 200.432 112.382 198.111 107.928C196.176 104.216 194.508 103.446 190.567 104.621C190.27 104.71 189.974 104.799 189.677 104.887C187.795 105.447 186.383 106.46 184.719 107.336H184.721Z" fill="#FDF6F6"/>
<path d="M103.843 152.305C105.05 149.872 102.723 148.431 100.983 148.15C99.9264 147.979 99.8992 148.57 99.494 149.568C99.305 150.035 99.5204 150.433 99.494 150.936C99.4457 151.857 99.4955 157.883 98.9503 158.598C98.2363 157.985 96.1207 152.056 95.4752 151.226C95.371 151.092 95.105 150.83 94.9689 150.692C93.8815 149.598 92.1821 149.322 92.6993 151.483C92.7483 151.687 92.7942 151.787 92.9707 152.031C93.2997 152.484 93.3379 152.334 93.6093 152.882C93.7306 153.127 93.6093 153.155 93.9321 153.915C93.9873 154.045 94.0347 154.204 94.1063 154.34C94.6733 155.413 95.2551 156.478 95.8112 157.556C96.7399 159.357 95.6937 161.468 94.58 163.024C94.1615 163.608 93.6466 164.114 93.1349 164.617C92.0996 165.633 91.0636 166.65 90.0284 167.667C87.8382 169.818 85.5733 172.086 84.6135 175.01C84.57 175.143 84.5287 175.286 84.5661 175.422C84.689 175.866 85.3516 175.707 85.7359 175.457C86.6847 174.838 87.6329 174.22 88.5817 173.602C89.162 173.223 89.7484 172.84 90.226 172.336C90.4935 172.054 90.7222 171.739 90.9602 171.431C91.7006 170.471 93.6482 168.905 94.3303 167.902C95.2403 166.564 97.9882 163.749 98.4066 163.798C99.2039 163.89 96.5252 169.56 96.8651 170.28C97.0759 170.725 97.1132 171.234 97.2843 171.697C97.4554 172.16 97.8396 172.611 98.3304 172.598C99.0001 172.58 100.115 172.371 100.405 171.763C101.176 170.146 102.048 168.277 102.037 166.483C102.035 166.049 101.984 164.005 102.842 164.688C103.594 165.286 104.259 165.998 104.806 166.791C105.462 167.74 106.466 168.339 106.947 169.385C107.587 170.779 107.997 172.349 108.452 173.812C109.398 176.85 110.184 179.938 110.803 183.059C111.151 184.809 111.965 186.517 112.575 188.195C112.79 188.785 113.254 189.984 114.01 190.055C114.535 190.105 114.939 190.077 115.351 189.823C115.764 189.568 115.826 189.271 116.212 188.958C117.01 188.313 115.834 186.334 115.833 185.436C115.832 184.022 115.62 182.612 115.321 181.232C114.801 178.828 114.284 176.266 113.568 173.928C113.246 172.878 112.94 171.821 112.603 170.776C112.324 169.916 111.835 169.262 111.424 168.455C110.459 166.564 109.789 165.013 108.285 164.102C103.055 160.93 108.703 161.099 110.242 159.369C111.037 158.476 111.832 157.583 112.628 156.69C112.859 156.43 113.094 156.163 113.22 155.838C113.656 154.711 113.453 152.673 111.956 152.83C110.879 152.943 110.078 154.449 109.39 155.141C108.546 155.991 104.892 160.027 103.272 159.466C103.185 159.436 103.102 159.392 103.027 159.333C102.768 159.13 102.707 158.762 102.722 158.432C102.762 157.517 103.197 156.69 103.284 155.787" fill="#FDF6F6"/>
<path d="M119.963 156.288C119.963 155.739 120.032 155.794 119.96 155.241C119.909 154.847 118.833 154.202 118.347 154.25C118.04 154.28 117.841 154.584 117.704 154.863C116.682 156.936 116.497 159.334 116.652 161.644C116.806 163.954 117.281 166.231 117.506 168.535C117.702 170.543 117.709 172.564 117.818 174.579C117.854 175.259 117.905 175.953 118.162 176.583C118.419 177.214 118.917 177.782 119.573 177.949C120.139 178.093 120.743 177.924 121.258 177.649C121.863 177.326 122.397 176.847 122.716 176.237C123.019 175.658 123.116 174.996 123.253 174.357C124.145 170.217 126.857 166.699 128.096 162.651C128.538 161.206 128.815 159.649 129.756 158.473C129.519 164.08 130.286 169.712 131.82 175.108C132.19 176.412 132.699 177.822 133.873 178.484C134.249 178.696 134.709 178.814 135.111 178.661C135.559 178.489 135.829 178.031 136.011 177.584C137.036 175.066 136.36 172.214 135.722 169.57C134.677 165.237 133.766 160.841 133.645 156.384C133.615 155.309 133.612 154.161 133.019 153.265C132.518 152.508 131.671 152.059 130.827 151.735C130.054 151.438 129.177 151.221 128.412 151.541C127.835 151.783 127.413 152.297 127.086 152.835C126.242 154.229 125.892 155.858 125.458 157.431C124.531 160.78 123.159 164.004 121.39 166.989C121.32 167.107 121.237 167.235 121.105 167.271C120.823 167.347 120.645 166.976 120.589 166.687C120.41 165.751 120.255 164.811 120.125 163.866C120.001 162.96 119.571 162.115 119.634 161.194C119.689 160.392 119.689 160.119 119.781 159.583C119.879 159.023 119.96 158.216 119.96 157.656" fill="#FDF6F6"/>
<path d="M153.592 163.12C153.249 162.172 152.681 161.308 151.944 160.625C151.022 159.769 149.739 159.003 149.683 157.741C149.654 157.103 149.966 156.509 150.175 155.906C150.993 153.547 150.088 150.694 148.063 149.25C146.408 148.069 144.122 147.909 142.284 148.742C140.225 149.676 138.833 151.821 137.942 153.842C137.656 154.492 137.416 155.223 137.62 155.903C137.707 156.194 137.885 156.471 138.154 156.608C138.424 156.745 138.791 156.706 138.981 156.47C139.196 156.204 139.128 155.818 139.164 155.477C139.238 154.774 139.779 154.22 140.322 153.771C141.902 152.467 143.779 151.533 145.767 151.061C146.099 150.982 146.495 150.933 146.74 151.171C146.957 151.384 146.956 151.729 146.939 152.034C146.867 153.358 146.791 154.699 146.379 155.959C145.966 157.218 145.171 158.406 143.992 158.997C143.085 159.452 141.977 159.553 141.251 160.264C140.232 161.262 140.442 162.932 140.726 164.334C140.779 164.594 140.838 164.867 141.013 165.066C141.221 165.301 141.55 165.384 141.86 165.427C143.212 165.618 144.629 165.3 145.771 164.548C146.527 164.051 147.275 163.339 148.174 163.425C148.805 163.486 149.348 163.966 149.604 164.55C149.86 165.134 149.861 165.805 149.733 166.431C149.466 167.736 148.661 168.888 147.642 169.738C146.624 170.587 145.4 171.156 144.146 171.577C143.008 171.96 141.816 172.238 140.799 172.877C140.503 173.063 140.208 173.302 140.117 173.64C140.047 173.898 140.107 174.176 140.205 174.425C140.807 175.965 142.691 176.652 144.321 176.439C145.952 176.226 147.401 175.333 148.835 174.523C150.067 173.827 151.364 173.144 152.228 172.019C152.995 171.02 153.345 169.766 153.61 168.532C153.944 166.978 154.168 165.353 153.802 163.807C153.746 163.574 153.677 163.344 153.596 163.118L153.592 163.12Z" fill="#FDF6F6"/>
<path d="M170.585 159.657C170.569 155.569 170.199 151.478 169.687 147.418C169.38 144.992 169.024 142.514 169.522 140.12C169.643 139.539 169.804 138.891 169.495 138.385C169.133 137.792 168.249 137.711 167.648 138.055C167.046 138.399 166.679 139.044 166.412 139.686C165.723 141.338 165.506 143.187 165.793 144.955C165.888 145.545 166.017 146.221 165.64 146.682C165.495 146.86 165.29 146.978 165.086 147.083C164.288 147.495 163.42 147.768 162.533 147.89C162.262 147.926 161.98 147.948 161.723 147.855C161.164 147.651 160.926 146.991 160.837 146.398C160.588 144.738 160.966 143.035 160.75 141.371C160.69 140.902 160.575 140.426 160.3 140.043C158.528 137.573 157.852 143.263 157.871 144.201C157.904 145.857 158.062 147.582 157.421 149.108C156.895 150.361 155.748 151.17 155.167 152.347C155.018 152.648 154.969 153.019 155.122 153.319C155.776 154.596 157.36 153.871 157.179 155.826C156.904 158.791 156.63 161.756 156.356 164.722C156.24 165.975 156.223 167.469 157.229 168.217C158.003 168.793 159.157 168.645 159.908 168.039C160.658 167.432 161.048 166.464 161.162 165.501C161.278 164.539 161.148 163.566 161.035 162.604C160.655 159.395 160.441 156.098 161.23 152.965C161.299 152.692 161.383 152.409 161.581 152.209C161.793 151.996 162.1 151.918 162.392 151.847C163.175 151.659 163.958 151.47 164.74 151.282C165.019 151.215 165.334 151.153 165.574 151.31C165.855 151.493 165.9 151.881 165.916 152.218C166.045 154.941 166.115 157.666 166.125 160.392C166.132 162.005 166.114 163.637 165.697 165.194C165.475 166.02 165.138 166.869 165.318 167.707C165.509 168.593 166.328 169.303 167.228 169.358C168.269 169.422 169.227 168.675 169.72 167.75C170.213 166.825 170.331 165.751 170.41 164.704C170.538 163.024 170.591 161.341 170.584 159.657H170.585Z" fill="#FDF6F6"/>
<path d="M179.149 163.802C179.945 163.993 181.214 163.325 181.803 162.988C182.968 162.321 183.925 161.349 184.933 160.474C187.103 158.593 189.723 157.061 191.087 154.526C192.458 151.976 192.239 148.675 190.653 146.255C189.067 143.835 186.216 142.347 183.337 142.299C182.54 142.286 181.737 142.374 180.946 142.273C180.155 142.171 179.345 141.843 178.891 141.182C178.356 140.403 178.432 139.37 178.204 138.451C177.999 137.628 177.144 136.55 176.218 137.011C175.267 137.485 175.085 139.259 175.143 140.156C175.217 141.293 175.57 142.394 175.682 143.528C175.907 145.81 176.88 148.734 176.951 151.026C176.989 152.259 177.314 153.457 177.368 154.695C177.431 156.119 177.373 157.548 177.508 158.969C177.6 159.951 177.784 160.923 178.055 161.87C178.173 162.28 178.531 163.475 178.887 163.695C178.967 163.744 179.055 163.778 179.149 163.801L179.149 163.802Z" fill="#FDF6F6"/>
<path d="M187.171 148.182C187.217 148.591 186.957 149.023 186.735 149.397C185.494 151.494 185.226 154.068 183.954 156.146C183.63 156.674 183.142 157.215 182.526 157.18C182.54 154.838 181.196 152.734 180.536 150.488C179.877 148.24 180.913 146.793 183.251 146.903C184.193 146.947 185.13 147.079 186.047 147.295C186.466 147.394 186.931 147.551 187.107 147.946C187.141 148.024 187.162 148.102 187.171 148.181V148.182Z" fill="#E93986"/>
<path d="M182.584 157.54C182.558 157.54 182.532 157.54 182.506 157.537L182.166 157.518L182.168 157.178C182.177 155.699 181.619 154.324 181.029 152.867C180.729 152.129 180.42 151.366 180.192 150.589C179.826 149.339 179.938 148.289 180.518 147.551C181.081 146.834 182.03 146.486 183.268 146.545C184.23 146.59 185.193 146.725 186.13 146.946C186.61 147.06 187.192 147.259 187.434 147.8C187.483 147.908 187.514 148.024 187.528 148.143C187.586 148.665 187.291 149.164 187.054 149.564L187.044 149.58C186.453 150.578 186.078 151.725 185.715 152.834C185.328 154.018 184.928 155.241 184.26 156.333C183.776 157.124 183.199 157.54 182.585 157.54H182.584ZM183.006 147.255C182.125 147.255 181.463 147.509 181.081 147.994C180.65 148.542 180.581 149.369 180.879 150.387C181.097 151.129 181.4 151.876 181.692 152.598C182.23 153.926 182.786 155.296 182.872 156.756C183.21 156.601 183.49 156.214 183.647 155.958C184.272 154.939 184.658 153.755 185.033 152.611C185.407 151.464 185.795 150.28 186.426 149.214L186.436 149.198C186.628 148.874 186.846 148.506 186.814 148.222C186.808 148.176 186.797 148.133 186.779 148.092C186.665 147.838 186.284 147.719 185.964 147.643C185.07 147.432 184.151 147.303 183.233 147.261C183.155 147.257 183.08 147.255 183.005 147.255H183.006Z" fill="#E93986"/>
<path d="M189.377 111.507C190.816 111.05 192.746 111.357 194.087 111.849C194.378 111.955 194.681 112.092 194.851 112.353C194.971 112.536 195.011 112.759 195.044 112.976C195.292 114.581 195.336 116.218 195.173 117.835C195.127 118.286 195.046 118.777 194.709 119.079C194.371 119.382 193.877 119.406 193.426 119.441C192.679 119.501 191.938 119.635 191.217 119.843C190.713 119.988 190.205 120.172 189.68 120.15C188.65 120.107 187.742 119.152 187.745 118.114C187.745 117.783 187.826 117.453 187.783 117.126C187.739 116.796 187.574 116.498 187.445 116.193C187.054 115.258 186.976 114.021 187.269 113.043C187.516 112.217 188.356 111.921 189.075 111.619C189.173 111.578 189.275 111.541 189.378 111.508L189.377 111.507Z" fill="#E93986"/>
<path d="M189.767 120.509C189.733 120.509 189.699 120.509 189.665 120.507C188.448 120.456 187.383 119.337 187.386 118.112C187.386 117.966 187.4 117.826 187.413 117.69C187.431 117.505 187.448 117.33 187.427 117.172C187.401 116.971 187.308 116.766 187.211 116.549C187.178 116.476 187.146 116.403 187.115 116.33C186.688 115.312 186.614 113.981 186.925 112.94C187.204 112.006 188.084 111.641 188.791 111.348L188.935 111.289C189.042 111.244 189.154 111.203 189.269 111.166C190.304 110.837 192.145 110.756 194.211 111.513C194.549 111.637 194.924 111.81 195.151 112.158C195.307 112.397 195.359 112.666 195.399 112.922C195.652 114.558 195.696 116.224 195.53 117.871C195.475 118.415 195.367 118.971 194.948 119.346C194.537 119.716 193.997 119.757 193.521 119.794L193.454 119.799C192.733 119.856 192.013 119.986 191.317 120.187C191.243 120.208 191.169 120.231 191.095 120.252C190.672 120.379 190.236 120.51 189.768 120.51L189.767 120.509ZM189.486 111.849C189.391 111.879 189.299 111.912 189.212 111.949L189.065 112.01C188.41 112.281 187.793 112.537 187.611 113.145C187.344 114.037 187.409 115.179 187.775 116.053C187.804 116.121 187.833 116.189 187.864 116.255C187.979 116.51 188.097 116.773 188.137 117.078C188.169 117.317 188.148 117.542 188.127 117.76C188.114 117.884 188.103 118.002 188.102 118.114C188.1 118.957 188.859 119.757 189.695 119.792C190.083 119.808 190.474 119.691 190.889 119.566C190.965 119.544 191.042 119.521 191.118 119.499C191.861 119.285 192.628 119.146 193.398 119.085L193.466 119.08C193.846 119.05 194.239 119.02 194.47 118.813C194.707 118.6 194.777 118.2 194.817 117.799C194.977 116.212 194.934 114.608 194.69 113.032C194.661 112.839 194.63 112.669 194.551 112.55C194.439 112.378 194.203 112.274 193.964 112.186C192.777 111.751 190.892 111.402 189.485 111.849L189.486 111.849Z" fill="#E93986"/>
</svg>
