<svg width="957" height="139" viewBox="0 0 957 139" fill="none" xmlns="http://www.w3.org/2000/svg">
<path d="M0 109.036V29.1317H34.5726C44.8974 29.1317 53.0321 30.9872 58.9767 34.698C64.9561 38.3741 67.9457 43.767 67.9457 50.8765C67.9457 55.0035 66.2597 58.5583 62.8876 61.5408C59.5503 64.4886 54.805 66.4828 48.6519 67.5232C54.075 67.8006 58.5769 68.8757 62.1576 70.7485C65.7383 72.6213 68.4151 74.9969 70.188 77.8754C71.961 80.7539 72.8474 83.8231 72.8474 87.0831C72.8474 91.7996 71.5786 95.7879 69.0408 99.0479C66.5031 102.308 62.7833 104.788 57.8816 106.487C53.0147 108.186 47.0354 109.036 39.9435 109.036H0ZM23.7263 90.6205H39.9435C42.6551 90.6205 44.7757 89.9789 46.3053 88.6957C47.8697 87.4126 48.6519 85.6438 48.6519 83.3896C48.6519 80.9619 47.8697 79.0545 46.3053 77.6673C44.7757 76.2801 42.6551 75.5864 39.9435 75.5864H23.7263V90.6205ZM23.7263 61.8009H35.2504C37.0929 61.8009 38.6747 61.5235 39.9957 60.9686C41.3167 60.4137 42.3249 59.616 43.0201 58.5756C43.7502 57.5352 44.1152 56.2867 44.1152 54.8301C44.1152 52.7146 43.2635 51.0499 41.5601 49.8361C39.8914 48.6223 37.5622 48.0153 34.5726 48.0153H23.7263V61.8009Z" fill="#111111"/>
<path d="M115.565 110.545C107.187 110.545 99.9562 108.897 93.8726 105.603C87.8237 102.273 83.1653 97.5393 79.8975 91.4008C76.6645 85.2277 75.048 77.8927 75.048 69.396C75.048 61.142 76.6819 53.9284 79.9497 47.7552C83.2175 41.5474 87.8237 36.7268 93.7683 33.2934C99.7129 29.8253 106.718 28.0913 114.783 28.0913C120.484 28.0913 125.699 28.9757 130.427 30.7444C135.155 32.5131 139.239 35.1315 142.681 38.5996C146.122 42.0676 148.799 46.3507 150.711 51.4487C152.623 56.5121 153.579 62.3211 153.579 68.8757V75.2223H83.9649V60.4484H129.853C129.818 57.7433 129.175 55.333 127.924 53.2174C126.672 51.1019 124.951 49.4546 122.761 48.2754C120.606 47.0616 118.12 46.4547 115.304 46.4547C112.454 46.4547 109.899 47.0963 107.639 48.3795C105.379 49.628 103.589 51.3447 102.268 53.5296C100.947 55.6798 100.252 58.1247 100.182 60.8645V75.8986C100.182 79.1586 100.825 82.0197 102.112 84.482C103.398 86.9097 105.223 88.7998 107.587 90.1523C109.951 91.5049 112.767 92.1811 116.034 92.1811C118.294 92.1811 120.345 91.869 122.188 91.2448C124.03 90.6205 125.612 89.7015 126.933 88.4877C128.254 87.2738 129.245 85.7826 129.905 84.0138L153.319 84.6901C152.345 89.9269 150.207 94.4874 146.905 98.3716C143.637 102.221 139.344 105.221 134.025 107.371C128.706 109.487 122.553 110.545 115.565 110.545Z" fill="#111111"/>
<path d="M228.249 0L235.132 16.8028C232.942 18.5021 230.544 19.7853 227.936 20.6523C225.364 21.5193 222.218 22.1089 218.498 22.421C214.778 22.7332 210.085 22.9066 204.419 22.9412C198.022 22.9759 192.842 23.8603 188.879 25.5943C184.916 27.2937 181.909 30.0854 179.858 33.9697C177.842 37.8192 176.503 42.952 175.843 49.3679H176.521C178.815 44.5473 182.083 40.7497 186.324 37.9753C190.565 35.2008 196.041 33.8136 202.75 33.8136C209.738 33.8136 215.821 35.3222 221.001 38.3394C226.181 41.322 230.179 45.5877 232.994 51.1366C235.81 56.6508 237.218 63.2055 237.218 70.8005C237.218 78.8464 235.602 85.8519 232.369 91.817C229.136 97.7821 224.512 102.395 218.498 105.655C212.484 108.915 205.288 110.545 196.91 110.545C188.532 110.545 181.318 108.845 175.269 105.446C169.255 102.048 164.614 97.0538 161.346 90.4644C158.113 83.8404 156.497 75.7078 156.497 66.0666V60.2403C156.497 40.4723 160.495 25.9238 168.49 16.5947C176.486 7.26559 188.167 2.56637 203.532 2.497C207.391 2.46232 210.885 2.46232 214.013 2.497C217.177 2.497 219.941 2.34094 222.305 2.02882C224.669 1.68201 226.65 1.00573 228.249 0ZM197.066 91.3488C199.986 91.3488 202.507 90.5685 204.627 89.0079C206.748 87.4472 208.382 85.2103 209.529 82.2971C210.676 79.384 211.25 75.8812 211.25 71.7889C211.25 67.6966 210.659 64.2112 209.477 61.3327C208.33 58.4542 206.696 56.2693 204.575 54.7781C202.455 53.2521 199.934 52.4891 197.014 52.4891C194.789 52.4891 192.773 52.9227 190.965 53.7897C189.157 54.622 187.628 55.8705 186.376 57.5352C185.125 59.1652 184.169 61.1766 183.508 63.5696C182.848 65.9626 182.518 68.7023 182.518 71.7889C182.518 77.8927 183.804 82.6786 186.376 86.1467C188.949 89.6148 192.512 91.3488 197.066 91.3488Z" fill="#111111"/>
<path d="M294.524 56.1306V75.7425H245.09V56.1306H294.524Z" fill="#111111"/>
<path d="M299.657 132.601V89.424H305.654C307.462 88.5223 308.905 86.7883 309.982 84.2219C311.06 81.6209 311.912 78.5863 312.537 75.1183C313.198 71.6155 313.685 67.9741 313.997 64.1939C314.345 60.379 314.658 56.7895 314.936 53.4255L316.813 29.1317H381.683V89.424H394.197V132.601H370.002V109.036H324.479V132.601H299.657ZM330.476 89.424H357.904V48.0674H338.089L337.672 53.4255C337.185 62.0263 336.42 69.2399 335.377 75.0662C334.334 80.8926 332.7 85.6785 330.476 89.424Z" fill="#111111"/>
<path d="M422.797 76.1067L448.4 29.1317H472.909V109.036H448.765V61.9049L423.214 109.036H398.653V29.1317H422.797V76.1067Z" fill="#111111"/>
<path d="M477.99 85.6265H502.29C502.36 87.9848 503.385 89.8575 505.367 91.2448C507.383 92.632 509.973 93.3256 513.136 93.3256C516.335 93.3256 518.977 92.5626 521.062 91.0367C523.183 89.476 524.243 87.3259 524.243 84.5861C524.243 82.9214 523.809 81.4648 522.94 80.2163C522.105 78.9331 520.924 77.9274 519.394 77.1991C517.899 76.4708 516.161 76.1067 514.179 76.1067H503.437V60.4484H514.179C517.134 60.4484 519.463 59.7547 521.167 58.3675C522.87 56.9803 523.722 55.2289 523.722 53.1134C523.722 50.7204 522.853 48.7783 521.115 47.287C519.411 45.7958 517.134 45.0501 514.284 45.0501C511.468 45.0501 509.139 45.6917 507.296 46.9749C505.454 48.2581 504.515 49.9228 504.48 51.9689H480.18C480.215 47.0096 481.693 42.7612 484.613 39.2238C487.568 35.6517 491.531 32.9119 496.502 31.0045C501.508 29.0624 507.07 28.0913 513.189 28.0913C520.037 28.0913 525.93 28.993 530.866 30.7964C535.837 32.5651 539.644 35.1315 542.286 38.4955C544.928 41.8248 546.249 45.8825 546.249 50.6684C546.249 54.8301 544.806 58.3502 541.921 61.2287C539.07 64.1072 534.951 66.1533 529.562 67.3671V68.1995C532.934 68.3729 536.028 69.2225 538.844 70.7485C541.66 72.2398 543.937 74.3553 545.675 77.0951C547.413 79.8001 548.283 83.0775 548.283 86.927C548.283 91.8864 546.77 96.1347 543.746 99.6721C540.721 103.175 536.567 105.863 531.283 107.735C526.034 109.608 520.002 110.545 513.189 110.545C506.549 110.545 500.604 109.625 495.355 107.787C490.14 105.915 485.986 103.123 482.892 99.4121C479.798 95.7012 478.164 91.106 477.99 85.6265Z" fill="#111111"/>
<path d="M576.047 110.388C570.937 110.388 566.401 109.539 562.438 107.839C558.509 106.105 555.398 103.504 553.103 100.036C550.844 96.5336 549.714 92.1465 549.714 86.875C549.714 82.4359 550.496 78.6904 552.06 75.6385C553.625 72.5866 555.78 70.1069 558.527 68.1995C561.273 66.292 564.436 64.8528 568.017 63.8817C571.598 62.876 575.422 62.1997 579.489 61.8529C584.043 61.4368 587.711 61.0032 590.492 60.5524C593.273 60.0669 595.289 59.3906 596.541 58.5236C597.827 57.6219 598.47 56.356 598.47 54.726V54.4659C598.47 51.7955 597.549 49.732 595.706 48.2754C593.864 46.8189 591.378 46.0906 588.25 46.0906C584.878 46.0906 582.166 46.8189 580.115 48.2754C578.064 49.732 576.76 51.7435 576.204 54.3099L552.686 53.4775C553.382 48.6223 555.172 44.2872 558.057 40.4723C560.977 36.6228 564.975 33.6055 570.051 31.4207C575.161 29.2011 581.297 28.0913 588.458 28.0913C593.568 28.0913 598.279 28.6982 602.59 29.912C606.9 31.0912 610.655 32.8252 613.853 35.1141C617.051 37.3684 619.52 40.1428 621.258 43.4375C623.031 46.7322 623.917 50.495 623.917 54.726V109.036H599.93V97.9034H599.304C597.879 100.609 596.054 102.897 593.829 104.77C591.639 106.643 589.049 108.048 586.059 108.984C583.105 109.92 579.767 110.388 576.047 110.388ZM583.921 93.7418C586.668 93.7418 589.136 93.1869 591.326 92.0771C593.551 90.9673 595.324 89.4414 596.645 87.4993C597.966 85.5225 598.627 83.2335 598.627 80.6325V73.0374C597.896 73.4189 597.01 73.7657 595.967 74.0778C594.959 74.39 593.847 74.6848 592.63 74.9622C591.413 75.2396 590.162 75.4824 588.875 75.6905C587.589 75.8986 586.355 76.0893 585.173 76.2627C582.774 76.6442 580.723 77.2338 579.02 78.0314C577.351 78.8291 576.065 79.8695 575.161 81.1527C574.292 82.4012 573.857 83.8925 573.857 85.6265C573.857 88.2622 574.796 90.2737 576.673 91.6609C578.585 93.0481 581.001 93.7418 583.921 93.7418Z" fill="#111111"/>
<path d="M656.31 76.1067L681.914 29.1317H706.422V109.036H682.279V61.9049L656.727 109.036H632.167V29.1317H656.31V76.1067ZM679.619 0.832335H696.41C696.375 7.3523 693.907 12.5891 689.005 16.5427C684.138 20.4963 677.533 22.4731 669.19 22.4731C660.847 22.4731 654.224 20.4963 649.323 16.5427C644.456 12.5891 642.04 7.3523 642.074 0.832335H658.709C658.674 3.12126 659.456 5.20209 661.055 7.07485C662.654 8.9476 665.366 9.88398 669.19 9.88398C672.91 9.88398 675.569 8.96494 677.168 7.12687C678.767 5.28879 679.584 3.19061 679.619 0.832335Z" fill="#111111"/>
<path d="M771.784 59.1478V78.5517H730.693V59.1478H771.784ZM739.454 29.1317V109.036H715.31V29.1317H739.454ZM787.167 29.1317V109.036H763.18V29.1317H787.167Z" fill="#111111"/>
<path d="M832.74 110.545C824.362 110.545 817.131 108.897 811.047 105.603C804.998 102.273 800.34 97.5393 797.072 91.4008C793.839 85.2277 792.222 77.8927 792.222 69.396C792.222 61.142 793.856 53.9284 797.124 47.7552C800.392 41.5474 804.998 36.7268 810.943 33.2934C816.887 29.8253 823.892 28.0913 831.957 28.0913C837.659 28.0913 842.873 28.9757 847.601 30.7444C852.329 32.5131 856.414 35.1315 859.855 38.5996C863.297 42.0676 865.974 46.3507 867.886 51.4487C869.798 56.5121 870.754 62.3211 870.754 68.8757V75.2223H801.139V60.4484H847.027C846.993 57.7433 846.35 55.333 845.098 53.2174C843.847 51.1019 842.126 49.4546 839.936 48.2754C837.78 47.0616 835.295 46.4547 832.479 46.4547C829.628 46.4547 827.073 47.0963 824.813 48.3795C822.554 49.628 820.763 51.3447 819.442 53.5296C818.121 55.6798 817.426 58.1247 817.357 60.8645V75.8986C817.357 79.1586 818 82.0197 819.286 84.482C820.572 86.9097 822.397 88.7998 824.761 90.1523C827.125 91.5049 829.941 92.1811 833.209 92.1811C835.469 92.1811 837.52 91.869 839.362 91.2448C841.205 90.6205 842.786 89.7015 844.107 88.4877C845.428 87.2738 846.419 85.7826 847.08 84.0138L870.493 84.6901C869.52 89.9269 867.382 94.4874 864.079 98.3716C860.811 102.221 856.518 105.221 851.199 107.371C845.88 109.487 839.727 110.545 832.74 110.545Z" fill="#111111"/>
<path d="M876.435 139V29.1317H901.674V42.8132H902.456C903.499 40.3856 904.976 38.0447 906.888 35.7904C908.835 33.5362 911.303 31.6981 914.293 30.2762C917.317 28.8196 920.933 28.0913 925.139 28.0913C930.701 28.0913 935.898 29.5479 940.731 32.4611C945.598 35.3742 949.526 39.8654 952.515 45.9345C955.505 52.0036 957 59.7374 957 69.1359C957 78.1875 955.557 85.7652 952.672 91.869C949.821 97.9728 945.963 102.551 941.096 105.603C936.263 108.654 930.892 110.18 924.983 110.18C920.95 110.18 917.456 109.521 914.501 108.204C911.546 106.886 909.061 105.152 907.045 103.001C905.063 100.851 903.533 98.545 902.456 96.0827H901.934V139H876.435ZM901.413 69.0838C901.413 73.3842 901.986 77.1297 903.134 80.3204C904.316 83.511 906.002 85.9906 908.192 87.7594C910.417 89.4934 913.076 90.3604 916.17 90.3604C919.299 90.3604 921.958 89.4934 924.148 87.7594C926.338 85.9906 927.99 83.511 929.102 80.3204C930.249 77.1297 930.823 73.3842 930.823 69.0838C930.823 64.7834 930.249 61.0553 929.102 57.8993C927.99 54.7434 926.338 52.2984 924.148 50.5644C921.993 48.8303 919.333 47.9633 916.17 47.9633C913.041 47.9633 910.382 48.813 908.192 50.5124C906.002 52.2117 904.316 54.6393 903.134 57.7953C901.986 60.9512 901.413 64.7141 901.413 69.0838Z" fill="#111111"/>
<path fill-rule="evenodd" clip-rule="evenodd" d="M651.418 4.70933C651.279 4.76614 651.115 4.7596 650.976 4.67738C650.778 4.56141 650.603 4.42806 650.467 4.30331C650.4 4.24106 650.337 4.17587 650.284 4.11097C650.241 4.0579 650.169 3.96325 650.131 3.8454C650.113 3.78996 650.077 3.65566 650.13 3.49865C650.197 3.3002 650.358 3.19273 650.502 3.15651C650.618 3.12712 650.719 3.14296 650.769 3.15322C650.827 3.16527 650.881 3.18395 650.925 3.20195C651.093 3.26972 651.316 3.40513 651.596 3.60259C653.039 4.6216 654.332 5.84382 655.594 7.04913C655.645 7.09768 655.695 7.14619 655.746 7.19466C656.964 8.35809 658.157 9.4987 659.47 10.4739C661.148 11.7201 663.145 13.1211 665.25 14.2503C665.784 14.5363 666.322 14.8036 666.862 15.0459C668.39 15.3481 669.894 15.424 671.314 15.2056C673.165 14.9209 674.772 13.8826 676.35 12.5991C676.896 12.1549 677.427 11.692 677.961 11.2256C678.201 11.0168 678.441 10.8074 678.683 10.5986C678.9 10.4117 679.119 10.2261 679.339 10.0436C679.606 9.70886 679.888 9.32991 680.195 8.91905C680.43 8.60299 680.68 8.26804 680.947 7.91978C681.592 7.08061 682.316 6.19773 683.106 5.45577C683.893 4.71664 684.776 4.08871 685.744 3.79783C686.732 3.5008 687.783 3.56431 688.853 4.16305C689.545 4.54976 689.74 5.22403 689.691 5.88978C689.643 6.53053 689.372 7.23682 689.048 7.88948C688.537 8.92045 687.815 9.96265 687.382 10.5881C687.266 10.7552 687.171 10.8925 687.106 10.992C685.181 13.936 682.067 15.9028 678.959 17.2192C675.545 18.6657 671.679 19.8139 667.829 19.1139C666.171 18.8123 664.696 18.1006 663.316 17.2831C662.639 16.8825 661.978 16.4521 661.329 16.0294L661.29 16.0038C660.625 15.5708 659.973 15.1467 659.311 14.7581C656.64 13.1892 654.731 11.2166 653.012 8.68508C652.7 8.22568 652.258 7.72255 652.012 7.4559C651.955 7.39692 651.913 7.35258 651.883 7.32141C651.861 7.29804 651.842 7.27801 651.83 7.26408C651.827 7.26086 651.821 7.25381 651.814 7.24542L651.814 7.24535C651.811 7.24229 651.802 7.23138 651.792 7.21694C651.788 7.21146 651.774 7.19218 651.759 7.16568C651.751 7.15037 651.733 7.10849 651.723 7.08154C651.709 7.0287 651.703 6.8564 651.733 6.742C651.836 6.57991 652.119 6.43168 652.249 6.42791C652.308 6.43762 652.395 6.46565 652.423 6.47868C652.464 6.49919 652.493 6.52122 652.499 6.52576L652.499 6.52618C652.517 6.5393 652.53 6.55099 652.533 6.55374L652.533 6.55397C652.542 6.56195 652.549 6.56908 652.552 6.57188C652.575 6.59397 652.621 6.6417 652.677 6.70235C652.696 6.72225 652.717 6.74443 652.739 6.7687C652.857 6.89017 653.041 7.07737 653.308 7.34456C655.419 9.45561 658.392 11.6673 661.615 13.2273C661.632 13.2352 661.648 13.243 661.664 13.2508C660.664 12.5855 659.724 11.9083 658.874 11.2766C657.51 10.2634 656.276 9.08383 655.07 7.93173C655.014 7.87851 654.959 7.82534 654.903 7.77225C653.76 6.6799 652.636 5.61895 651.418 4.70933ZM651.05 3.46653C651.05 3.46655 651.051 3.46818 651.053 3.47136C651.05 3.46809 651.049 3.4665 651.05 3.46653ZM666.556 16.0044C664.737 15.6328 662.915 14.9671 661.18 14.1274C659.485 13.3073 657.86 12.3143 656.383 11.2487C657.388 12.2526 658.506 13.1256 659.817 13.8958C660.502 14.298 661.174 14.7346 661.836 15.1658L661.867 15.1864C662.522 15.6126 663.167 16.0331 663.825 16.4226C665.162 17.2141 666.518 17.859 668.008 18.13C671.562 18.7762 675.202 17.7249 678.569 16.2984C681.589 15.0189 684.498 13.153 686.269 10.4447C686.351 10.3193 686.461 10.1596 686.59 9.97331C687.028 9.34046 687.679 8.39981 688.153 7.44507C688.372 7.00172 688.538 6.58522 688.626 6.22109C687.918 6.54959 687.182 6.86197 686.451 7.17198C686.008 7.36031 685.566 7.54778 685.134 7.73746C683.895 8.28127 682.702 8.8563 681.629 9.56634C681.1 9.91645 680.579 10.3177 680.055 10.7493C680.041 10.7659 680.028 10.7823 680.015 10.7985C679.668 11.2253 679.317 11.6975 678.946 12.1977C678.781 12.4197 678.612 12.6473 678.437 12.8789C677.877 13.622 677.27 14.3905 676.601 15.0747C675.269 16.4391 673.626 17.5346 671.529 17.375C669.879 17.2495 668.19 16.7291 666.556 16.0044ZM676.359 13.866C674.912 14.9719 673.32 15.9088 671.466 16.194C671.236 16.2294 671.004 16.2577 670.771 16.2792C671.051 16.3237 671.329 16.3569 671.605 16.3779C673.268 16.5045 674.637 15.6543 675.886 14.376C676.047 14.2115 676.204 14.041 676.359 13.866ZM682.041 8.14213C682.91 7.64827 683.821 7.2214 684.732 6.82177C685.189 6.62115 685.642 6.42895 686.09 6.23877C686.888 5.9004 687.671 5.5684 688.435 5.20661C688.468 5.19071 688.502 5.17889 688.537 5.17092C688.49 5.11768 688.432 5.0734 688.365 5.03581C687.539 4.57373 686.769 4.53383 686.032 4.75552C685.273 4.98335 684.524 5.49626 683.791 6.18479C683.174 6.7635 682.59 7.44614 682.041 8.14213Z" fill="#FF0099"/>
<path fill-rule="evenodd" clip-rule="evenodd" d="M691.936 34.4327C691.936 34.4328 691.935 34.4331 691.934 34.4335C691.935 34.4329 691.936 34.4327 691.936 34.4327ZM690.46 35.3083C689.07 36.298 687.764 37.685 686.548 39.2189C685.281 40.8184 684.141 42.538 683.119 44.0801C682.825 44.5241 682.54 44.9533 682.265 45.3608C680.694 47.6875 679.419 50.173 678.178 52.7078C677.951 53.1722 677.725 53.6385 677.498 54.1058C677.436 54.2339 677.374 54.3621 677.311 54.4903C678.005 53.4941 678.705 52.5012 679.404 51.5096C680.437 50.0441 681.468 48.5816 682.474 47.1161C682.711 46.7714 682.952 46.4136 683.198 46.0478C684.235 44.5092 685.366 42.8298 686.664 41.3947C686.848 40.997 687.036 40.6 687.231 40.2066C688.072 38.5067 689.044 36.8491 690.361 35.4207C690.39 35.3884 690.424 35.3506 690.46 35.3083ZM688.71 39.5257C689.387 38.2851 690.152 37.1223 691.096 36.0985C691.347 35.8255 691.765 35.2851 692.045 34.8448C692.173 34.6433 692.318 34.3935 692.369 34.1883C692.382 34.1325 692.4 34.0389 692.386 33.9314C692.37 33.8127 692.306 33.6389 692.126 33.5294C691.966 33.4321 691.806 33.4441 691.725 33.458C691.637 33.4731 691.559 33.5044 691.5 33.5323C689.341 34.555 687.426 36.5011 685.765 38.5978C684.468 40.2342 683.296 42.0025 682.271 43.5488C681.981 43.9868 681.702 44.407 681.436 44.8013C679.824 47.1891 678.523 49.7276 677.28 52.2683C677.049 52.7395 676.821 53.2105 676.593 53.6806C675.587 55.7539 674.589 57.8108 673.451 59.8016C672.224 61.9498 670.735 63.8911 669.165 65.8046C668.695 66.3786 668.215 66.9519 667.734 67.5277C666.619 68.8611 665.492 70.2083 664.436 71.6102C660.783 76.459 657.261 81.4362 654.194 86.7019C653.289 88.2547 652.505 89.8849 651.731 91.4938C651.641 91.679 651.552 91.8639 651.463 92.0484C650.597 93.8436 649.726 95.6026 648.681 97.2389C648.592 97.3787 648.484 97.5603 648.365 97.7619C648.083 98.2389 647.735 98.8275 647.405 99.2367C647.399 99.2451 647.392 99.2534 647.385 99.2615C647.384 99.2158 647.383 99.1657 647.383 99.1109C647.383 97.5103 647.582 95.9613 647.788 94.3673C647.868 93.7398 647.95 93.1052 648.021 92.4578C648.59 87.2563 648.674 81.9957 648.691 76.7507C648.694 75.9118 648.695 75.0736 648.697 74.236C648.703 69.8288 648.708 65.4408 648.96 61.0896C649.043 59.6577 649.105 58.2132 649.168 56.7646C649.351 52.5302 649.535 48.262 650.236 44.1793L650.247 44.1173C650.623 41.9255 650.984 39.826 650.934 37.5243C650.928 37.2802 650.913 37.0537 650.86 36.894C650.845 36.8493 650.818 36.7815 650.769 36.7137C650.721 36.6461 650.62 36.5386 650.451 36.4999C650.274 36.4594 650.128 36.5181 650.044 36.5719C649.965 36.622 649.914 36.6825 649.886 36.7192C649.788 36.8476 649.719 37.0349 649.672 37.1734C649.617 37.3367 649.56 37.5338 649.506 37.741C649.291 38.5658 649.077 39.6733 649.053 39.8218C648.635 42.3762 648.269 44.9729 647.916 47.5281C647.57 50.0364 647.558 52.5796 647.581 55.0957C647.584 55.4098 647.587 55.7234 647.591 56.0365C647.615 58.2418 647.639 60.4209 647.469 62.5751C647.1 67.2677 646.638 71.9559 646.163 76.6448C645.977 78.4904 645.826 80.3371 645.676 82.1791C645.137 88.7774 644.604 95.3161 642.44 101.536C642.405 101.636 642.015 102.65 641.578 103.395C641.471 103.579 641.367 103.735 641.271 103.853C641.263 103.863 641.255 103.872 641.248 103.881C641.037 103.144 641.028 102.305 641.06 101.392C641.066 101.229 641.073 101.064 641.08 100.896C641.111 100.151 641.145 99.367 641.067 98.6388C640.929 97.3363 640.73 96.0567 640.535 94.7989C640.442 94.1987 640.35 93.6034 640.266 93.0129C640.002 91.1712 639.806 89.3434 639.861 87.4366C639.901 86.0624 639.978 84.6731 640.055 83.2768C640.167 81.229 640.281 79.1663 640.281 77.1143C640.281 74.2409 640.487 71.3831 640.703 68.5063C640.71 68.4061 640.718 68.3058 640.725 68.2055C640.933 65.4334 641.142 62.6424 641.168 59.8325C641.171 59.6177 641.173 59.4032 641.175 59.1888C641.21 55.3925 641.245 51.6523 641.513 47.8784C641.594 46.73 641.787 45.5883 641.985 44.4201C642.003 44.3138 642.021 44.2073 642.039 44.1005C642.253 42.8305 642.459 41.5298 642.5 40.2138C642.509 39.9127 642.5 39.5933 642.491 39.2833C642.491 39.2686 642.49 39.254 642.49 39.2394C642.481 38.9096 642.472 38.5871 642.483 38.2711C642.496 37.8922 642.535 37.5468 642.62 37.2405C642.761 37.7905 642.889 38.5846 643 39.456C643.203 41.0458 643.336 42.7869 643.396 43.5668C643.41 43.7512 643.42 43.8819 643.426 43.9441C643.914 49.1488 644.421 54.4472 645.355 59.6206C645.432 60.0466 645.5 60.3704 645.562 60.6067C645.593 60.7246 645.625 60.828 645.657 60.9149C645.686 60.993 645.728 61.0928 645.793 61.179C645.832 61.232 646.053 61.5023 646.405 61.3867C646.546 61.3406 646.631 61.2492 646.672 61.195C646.715 61.1379 646.742 61.0813 646.759 61.042C646.816 60.9021 646.844 60.7182 646.861 60.57C646.919 60.0657 646.929 59.2278 646.934 58.7475C646.936 58.6239 646.937 58.524 646.939 58.4596C646.96 57.617 646.959 56.7584 646.958 55.9079C646.957 55.311 646.956 54.7181 646.964 54.1374C646.968 53.8023 646.972 53.4664 646.975 53.1297C647.024 48.9501 647.074 44.6599 647.455 40.5403C647.532 39.7055 647.82 39.1483 648.059 38.6842C648.132 38.5437 648.2 38.4117 648.257 38.2831C648.312 38.1581 648.383 37.9757 648.379 37.7786C648.373 37.5285 648.252 37.3134 648.04 37.1747C647.869 37.062 647.658 37.0129 647.463 36.9848C647.255 36.9551 646.999 36.941 646.693 36.9366C645.651 36.9215 644.652 36.6957 643.613 36.4268C643.538 36.4074 643.463 36.3878 643.387 36.368C643.378 36.3467 643.369 36.3258 643.36 36.3055C643.303 36.1832 643.222 36.0385 643.102 35.9266C642.968 35.8019 642.735 35.6806 642.456 35.7686C642.289 35.8213 642.171 35.9319 642.091 36.0341C641.536 35.8999 640.967 35.781 640.386 35.7075C639.672 35.6171 639.012 35.654 638.474 35.7654C637.962 35.8716 637.482 36.0621 637.206 36.3456C637.063 36.4924 636.904 36.7425 636.968 37.0575C637.029 37.3599 637.261 37.5402 637.455 37.6407C637.842 37.8415 638.476 37.9365 639.337 37.9365C639.613 37.9365 639.837 37.7127 639.837 37.4365C639.837 37.1604 639.613 36.9365 639.337 36.9365C638.852 36.9365 638.506 36.9027 638.269 36.8583C638.379 36.8182 638.514 36.7784 638.677 36.7446C639.104 36.6562 639.653 36.6226 640.26 36.6996C640.733 36.7594 641.197 36.8514 641.661 36.9597C641.541 37.3838 641.497 37.8224 641.484 38.2379C641.472 38.5889 641.481 38.9409 641.49 39.2676L641.491 39.2994C641.5 39.6198 641.509 39.9124 641.5 40.183C641.462 41.423 641.267 42.6623 641.053 43.9345C641.034 44.0426 641.016 44.151 640.998 44.2597C640.801 45.4193 640.6 46.6083 640.515 47.8076C640.245 51.6133 640.21 55.3821 640.175 59.1712C640.173 59.3884 640.171 59.6056 640.169 59.8229C640.142 62.5995 639.935 65.3615 639.727 68.1424C639.72 68.2388 639.713 68.3353 639.705 68.4317C639.49 71.3048 639.281 74.1982 639.281 77.1143C639.281 79.1563 639.17 81.1527 639.059 83.1662C638.981 84.5648 638.903 85.9716 638.862 87.4077C638.804 89.3993 639.009 91.293 639.276 93.1548C639.364 93.7692 639.458 94.3768 639.552 94.9829C639.745 96.2272 639.937 97.4654 640.073 98.7446C640.142 99.3916 640.113 100.082 640.082 100.822C640.074 100.998 640.067 101.176 640.061 101.358C640.029 102.274 640.029 103.253 640.286 104.156C640.361 104.418 640.482 104.693 640.708 104.864C640.833 104.958 640.982 105.014 641.144 105.018C641.299 105.022 641.435 104.978 641.543 104.923C641.747 104.82 641.916 104.645 642.048 104.483C642.187 104.311 642.319 104.108 642.441 103.9C642.924 103.077 643.339 101.997 643.385 101.864C645.594 95.5121 646.141 88.8053 646.68 82.1877C646.828 80.3637 646.976 78.5465 647.158 76.7454C647.343 74.9168 647.527 73.0869 647.703 71.2559C647.699 72.2514 647.698 73.2468 647.696 74.2415C647.695 75.0774 647.694 75.9128 647.691 76.7473C647.674 81.9892 647.59 87.2043 647.027 92.3491C646.961 92.9545 646.882 93.5644 646.803 94.1783C646.595 95.7958 646.383 97.4417 646.383 99.1109C646.383 99.439 646.409 99.7212 646.481 99.9423C646.548 100.152 646.709 100.451 647.066 100.516C647.372 100.572 647.623 100.409 647.753 100.307C647.906 100.188 648.053 100.027 648.185 99.8634C648.562 99.3937 648.991 98.6696 649.28 98.1818C649.381 98.0109 649.465 97.869 649.524 97.7771C650.604 96.0853 651.498 94.2777 652.364 92.483C652.453 92.2982 652.542 92.1135 652.631 91.9291C653.408 90.3152 654.175 88.7217 655.058 87.2053C658.097 81.9883 661.592 77.0467 665.235 72.2119C666.275 70.8311 667.375 69.5159 668.482 68.1916C668.66 67.9792 668.838 67.7665 669.016 67.5533C665.811 73.1109 662.862 78.7822 659.897 84.4855C659.211 85.805 658.524 87.1262 657.833 88.4481C657.416 89.2446 657.017 90.1064 656.62 90.9659C656.382 91.4799 656.144 91.993 655.904 92.4909C655.249 93.8444 654.552 95.1306 653.692 96.2102C653.645 96.2696 653.597 96.3246 653.551 96.3748C653.376 96.4951 653.248 96.5907 653.161 96.6628C653.112 96.7039 653.035 96.7694 652.982 96.8433C652.969 96.8612 652.931 96.9149 652.905 96.9921C652.888 97.0467 652.814 97.3269 653.058 97.5341C653.158 97.6187 653.264 97.6428 653.325 97.65C653.387 97.6574 653.438 97.6517 653.466 97.6471C653.523 97.6381 653.567 97.6213 653.587 97.6132C653.664 97.5823 653.738 97.5336 653.787 97.499C653.847 97.4568 653.915 97.4037 653.988 97.3412C654.054 97.2845 654.125 97.2182 654.2 97.1429C654.248 97.1107 654.3 97.0762 654.356 97.0393C655.709 96.1586 656.667 94.9091 657.454 93.593C657.848 92.9344 658.204 92.2511 658.544 91.5826C658.609 91.4545 658.674 91.3272 658.738 91.2007C659.01 90.6622 659.276 90.1385 659.552 89.6359C661.106 86.8103 663.096 84.2866 665.11 81.7311C665.828 80.8196 666.55 79.9041 667.256 78.9693C670.992 74.0255 673.731 68.5677 676.468 63.1149C676.84 62.3734 677.212 61.632 677.587 60.892C678.771 58.5528 680.059 56.2716 681.354 53.9781C681.47 53.7732 681.585 53.5682 681.701 53.363C683.11 50.8656 684.516 48.3481 685.778 45.7429C686.158 44.9574 686.518 44.1531 686.876 43.3538L686.95 43.1874C687.136 42.7734 687.321 42.3608 687.509 41.9513C687.931 41.4932 688.37 41.0654 688.83 40.6804C689.127 40.4319 689.338 40.3033 689.477 40.2465C689.512 40.2326 689.538 40.2245 689.557 40.2198C689.562 40.2314 689.568 40.2464 689.574 40.2654C689.609 40.3708 689.635 40.5343 689.643 40.763C689.66 41.2198 689.607 41.8009 689.551 42.4148L689.549 42.439C689.495 43.0214 689.438 43.6427 689.464 44.1224C689.719 48.7101 690.253 53.2786 690.785 57.8329L690.811 58.0618C691.353 62.6971 691.887 67.3183 692.128 71.9616C692.267 74.6586 692.429 77.3432 692.59 80.0225C692.972 86.3768 693.352 92.7015 693.434 99.0927C693.437 99.3007 693.488 99.5507 693.552 99.7774C693.617 100.012 693.706 100.261 693.804 100.476C693.891 100.667 694.019 100.909 694.187 101.059C694.264 101.126 694.479 101.291 694.769 101.21C695.049 101.131 695.157 100.888 695.194 100.783C695.744 99.2425 695.755 97.2338 695.763 95.6602C695.763 95.5002 695.764 95.3446 695.766 95.1945C695.782 93.3018 695.805 91.4085 695.832 89.5148C695.91 91.09 696.004 92.6731 696.098 94.2436L696.108 94.4049C696.327 98.0544 696.541 101.63 696.541 104.906C696.541 105.182 696.765 105.406 697.041 105.406C697.317 105.406 697.541 105.182 697.541 104.906C697.541 101.6 697.325 97.9986 697.107 94.3616L697.096 94.1837C696.874 90.4796 696.653 86.7406 696.653 83.2053C696.653 78.1135 696.507 73.0267 696.334 67.9458C696.432 64.7843 696.539 61.6237 696.653 58.4648C696.699 57.2005 696.806 55.8513 696.922 54.4482C696.93 54.3532 696.937 54.2579 696.945 54.1624C697.053 52.8516 697.165 51.4981 697.234 50.1434C697.383 47.2415 697.341 44.2883 696.636 41.6478C696.528 41.2422 696.195 40.9657 695.995 40.7998L695.976 40.7844C695.722 40.5732 695.583 40.4551 695.515 40.3201C695.479 40.2465 695.438 40.1507 695.397 40.0482C695.39 40.0311 695.383 40.0129 695.375 39.9943C695.344 39.9165 695.309 39.8302 695.282 39.7726C695.273 39.7531 695.259 39.7252 695.242 39.6965C695.233 39.6822 695.219 39.6601 695.201 39.6357C695.186 39.6172 695.146 39.5667 695.079 39.5217C695.017 39.4795 694.831 39.3793 694.604 39.4727C694.404 39.5553 694.337 39.726 694.321 39.7698C694.287 39.8659 694.289 39.955 694.29 39.9726L694.29 39.9746C694.291 40.0744 694.318 40.2369 694.354 40.4358C694.67 42.1714 694.766 43.7755 694.766 45.5743C694.766 51.8631 694.988 58.142 695.21 64.4095L695.21 64.4108C695.251 65.59 695.293 66.7688 695.333 67.9474C695.053 77.0245 694.847 86.1109 694.766 95.1856C694.764 95.3332 694.763 95.4835 694.762 95.6357C694.755 96.8945 694.746 98.2874 694.509 99.4893C694.458 99.3007 694.435 99.156 694.434 99.0799C694.352 92.664 693.969 86.3015 693.586 79.9369C693.426 77.263 693.265 74.5887 693.126 71.9099C692.884 67.2294 692.345 62.5768 691.805 57.9458L691.78 57.7303C691.247 53.1667 690.716 48.6241 690.463 44.067C690.441 43.671 690.49 43.1237 690.547 42.5065L690.549 42.4783C690.603 41.8932 690.662 41.2525 690.642 40.7257C690.632 40.4584 690.602 40.1864 690.523 39.9504C690.446 39.7176 690.297 39.4471 690.001 39.3038C689.701 39.1583 689.38 39.2069 689.101 39.3199C688.976 39.3708 688.846 39.4398 688.71 39.5257ZM695.897 54.7072C695.906 54.5937 695.916 54.48 695.925 54.3661C695.933 54.272 695.941 54.1776 695.948 54.0832C696.057 52.7693 696.167 51.4307 696.236 50.0923C696.383 47.2183 696.333 44.3915 695.67 41.9055C695.661 41.8718 695.635 41.8285 695.564 41.7566C695.715 43.0194 695.766 44.253 695.766 45.5743C695.766 48.6196 695.818 51.6633 695.897 54.7072ZM689.598 40.2138C689.598 40.2139 689.597 40.2139 689.595 40.2136C689.597 40.2136 689.598 40.2137 689.598 40.2138ZM689.538 40.1854C689.537 40.1844 689.537 40.1839 689.537 40.1839C689.537 40.1838 689.537 40.1843 689.538 40.1854ZM684.797 45.4733C684.543 45.8438 684.292 46.2149 684.045 46.5824C683.794 46.9541 683.546 47.3221 683.298 47.6821C682.276 49.1717 681.24 50.641 680.206 52.1074C678.712 54.2273 677.222 56.3413 675.781 58.5022C670.114 67.0029 665.485 75.9051 660.786 84.9434C660.099 86.2634 659.412 87.5864 658.719 88.9115C658.324 89.667 657.957 90.4564 657.582 91.2674C657.606 91.2214 657.629 91.1752 657.653 91.1291C657.716 91.0048 657.779 90.88 657.842 90.755C658.116 90.2154 658.391 89.6729 658.676 89.154C660.273 86.2498 662.338 83.6311 664.367 81.0563C665.076 80.1578 665.78 79.2646 666.458 78.3665C670.135 73.5006 672.831 68.1298 675.572 62.669C675.945 61.9274 676.318 61.1842 676.694 60.4403C677.889 58.0799 679.188 55.7792 680.482 53.4893C680.598 53.2834 680.714 53.0775 680.83 52.8716C682.209 50.4273 683.571 47.9883 684.797 45.4733ZM643.7 37.4809C643.811 38.0259 643.909 38.6718 643.992 39.3297C644.2 40.9585 644.338 42.771 644.396 43.5228C644.408 43.6872 644.417 43.8008 644.421 43.8507C644.838 48.2946 645.266 52.7728 645.957 57.1742C645.959 56.7621 645.959 56.3508 645.958 55.9377C645.957 55.3403 645.956 54.7389 645.964 54.1252C645.968 53.7882 645.972 53.45 645.976 53.1107C646.024 48.9394 646.075 44.6101 646.459 40.4484C646.556 39.3919 646.969 38.6036 647.208 38.1461C647.242 38.0812 647.273 38.023 647.298 37.9716C647.155 37.9526 646.954 37.9405 646.678 37.9365C645.634 37.9213 644.646 37.7175 643.7 37.4809ZM637.882 36.7329C637.882 36.7329 637.884 36.7339 637.886 36.7361C637.883 36.734 637.882 36.7329 637.882 36.7329ZM647.097 99.5461C647.097 99.5457 647.1 99.544 647.106 99.5416C647.1 99.5452 647.097 99.5464 647.097 99.5461ZM647.441 99.6586C647.441 99.6599 647.442 99.6606 647.442 99.6606C647.442 99.6606 647.441 99.66 647.441 99.6586Z" fill="#FF0099"/>
</svg>
