<svg width="778" height="137" viewBox="0 0 778 137" fill="none" xmlns="http://www.w3.org/2000/svg">
<path d="M90.5218 26.8361V106.927H65.0756V47.5114H25.4462V106.927H0V26.8361H90.5218Z" fill="#111111"/>
<path d="M103.177 137V26.7317H128.415V40.463H129.197C130.24 38.0266 131.717 35.6771 133.629 33.4146C135.576 31.1522 138.044 29.3074 141.034 27.8803C144.058 26.4184 147.673 25.6875 151.88 25.6875C157.442 25.6875 162.639 27.1494 167.471 30.0732C172.337 32.9969 176.265 37.5044 179.255 43.5957C182.245 49.6869 183.739 57.4488 183.739 66.8815C183.739 75.9661 182.297 83.5714 179.411 89.6974C176.561 95.8234 172.702 100.418 167.836 103.481C163.004 106.544 157.633 108.075 151.723 108.075C147.691 108.075 144.197 107.414 141.242 106.091C138.287 104.769 135.802 103.028 133.786 100.87C131.804 98.7124 130.275 96.3977 129.197 93.9264H128.675V137H103.177ZM128.154 66.8293C128.154 71.1453 128.728 74.9045 129.875 78.1067C131.057 81.3089 132.743 83.7976 134.933 85.5728C137.158 87.3131 139.817 88.1833 142.911 88.1833C146.039 88.1833 148.699 87.3131 150.889 85.5728C153.079 83.7976 154.73 81.3089 155.842 78.1067C156.99 74.9045 157.563 71.1453 157.563 66.8293C157.563 62.5132 156.99 58.7715 155.842 55.604C154.73 52.4366 153.079 49.9827 150.889 48.2424C148.734 46.502 146.074 45.6319 142.911 45.6319C139.782 45.6319 137.123 46.4846 134.933 48.1902C132.743 49.8957 131.057 52.3322 129.875 55.4996C128.728 58.667 128.154 62.4436 128.154 66.8293Z" fill="#111111"/>
<path d="M213.902 73.8777L239.505 26.7317H264.012V106.927H239.87V59.6242L214.319 106.927H189.759V26.7317H213.902V73.8777Z" fill="#111111"/>
<path d="M272.9 106.927V26.7317H307.472C317.796 26.7317 325.931 28.5939 331.875 32.3182C337.854 36.0078 340.844 41.4202 340.844 48.5556C340.844 52.6977 339.158 56.2654 335.786 59.2588C332.449 62.2174 327.703 64.2188 321.551 65.263C326.973 65.5414 331.475 66.6204 335.056 68.5C338.636 70.3796 341.313 72.7639 343.086 75.6528C344.859 78.5418 345.745 81.6222 345.745 84.8941C345.745 89.6278 344.476 93.6306 341.939 96.9024C339.401 100.174 335.682 102.663 330.78 104.369C325.913 106.074 319.934 106.927 312.842 106.927H272.9ZM296.626 88.4444H312.842C315.554 88.4444 317.674 87.8004 319.204 86.5126C320.768 85.2247 321.551 83.4496 321.551 81.1871C321.551 78.7506 320.768 76.8363 319.204 75.444C317.674 74.0517 315.554 73.3556 312.842 73.3556H296.626V88.4444ZM296.626 59.5198H308.15C309.992 59.5198 311.574 59.2414 312.895 58.6845C314.216 58.1275 315.224 57.327 315.919 56.2828C316.649 55.2386 317.014 53.9855 317.014 52.5236C317.014 50.4004 316.162 48.7297 314.459 47.5114C312.79 46.2932 310.461 45.6841 307.472 45.6841H296.626V59.5198Z" fill="#111111"/>
<path d="M388.462 108.441C380.084 108.441 372.853 106.788 366.77 103.481C360.721 100.139 356.063 95.3883 352.795 89.2275C349.562 83.0319 347.946 75.6702 347.946 67.1425C347.946 58.8585 349.58 51.6186 352.847 45.423C356.115 39.1926 360.721 34.3544 366.665 30.9085C372.61 27.4278 379.614 25.6875 387.679 25.6875C393.38 25.6875 398.595 26.5751 403.323 28.3502C408.05 30.1254 412.135 32.7533 415.576 36.234C419.018 39.7147 421.695 44.0133 423.607 49.13C425.518 54.2118 426.474 60.0419 426.474 66.6204V72.9901H356.862V58.1623H402.749C402.714 55.4474 402.071 53.0283 400.82 50.9051C399.568 48.7819 397.847 47.1286 395.657 45.9451C393.502 44.7269 391.017 44.1178 388.201 44.1178C385.35 44.1178 382.795 44.7617 380.536 46.0495C378.276 47.3026 376.486 49.0255 375.165 51.2184C373.844 53.3764 373.149 55.8303 373.079 58.58V73.6688C373.079 76.9407 373.722 79.8122 375.008 82.2835C376.295 84.72 378.12 86.617 380.484 87.9745C382.847 89.3319 385.663 90.0107 388.931 90.0107C391.19 90.0107 393.241 89.6974 395.084 89.0709C396.926 88.4444 398.508 87.522 399.829 86.3037C401.15 85.0855 402.141 83.5888 402.801 81.8136L426.214 82.4924C425.24 87.7482 423.102 92.3253 419.8 96.2237C416.532 100.087 412.239 103.098 406.921 105.256C401.602 107.379 395.449 108.441 388.462 108.441Z" fill="#111111"/>
<path d="M426.368 46.2584V26.7317H501.455V46.2584H475.852V106.927H451.657V46.2584H426.368Z" fill="#111111"/>
<path d="M536.245 0L533.846 74.1909H512.415L510.017 0H536.245ZM523.105 108.441C519.385 108.441 516.187 107.118 513.51 104.473C510.868 101.828 509.547 98.6254 509.547 94.8662C509.547 91.1767 510.868 88.0267 513.51 85.4162C516.187 82.7708 519.385 81.4482 523.105 81.4482C526.685 81.4482 529.831 82.7708 532.543 85.4162C535.289 88.0267 536.662 91.1767 536.662 94.8662C536.662 97.3723 536.019 99.6522 534.733 101.706C533.482 103.759 531.83 105.395 529.779 106.614C527.763 107.832 525.538 108.441 523.105 108.441Z" fill="#111111"/>
<path d="M619.54 106.927V46.2062H606.608C602.749 46.2062 599.864 47.0937 597.952 48.8689C596.04 50.6441 595.119 52.5932 595.189 54.7165C595.119 56.9093 596.058 58.8411 598.004 60.5118C599.951 62.1825 602.889 63.0179 606.817 63.0179H628.352V79.2031H606.817C599.482 79.2031 593.12 78.1415 587.732 76.0183C582.379 73.8603 578.242 70.8843 575.322 67.0903C572.437 63.2616 571.011 58.8585 571.046 53.8811C571.011 48.5556 572.437 43.8567 575.322 39.7843C578.207 35.6771 582.309 32.4748 587.628 30.1776C592.981 27.8803 599.308 26.7317 606.608 26.7317H643.265V106.927H619.54ZM569.482 106.927L591.539 64.532H615.42L593.364 106.927H569.482Z" fill="#111111"/>
<path d="M778 53.8289V73.5122H677.466V53.8289H778Z" fill="#111111"/>
</svg>
