<svg width="957" height="139" viewBox="0 0 957 139" fill="none" xmlns="http://www.w3.org/2000/svg">
<path d="M0 109.036V29.1317H34.5726C44.8974 29.1317 53.0321 30.9872 58.9767 34.698C64.9561 38.3741 67.9457 43.767 67.9457 50.8765C67.9457 55.0035 66.2597 58.5583 62.8876 61.5408C59.5503 64.4886 54.805 66.4828 48.6519 67.5232C54.075 67.8006 58.5769 68.8757 62.1576 70.7485C65.7383 72.6213 68.4151 74.9969 70.188 77.8754C71.961 80.7539 72.8474 83.8231 72.8474 87.0831C72.8474 91.7996 71.5786 95.7879 69.0408 99.0479C66.5031 102.308 62.7833 104.788 57.8816 106.487C53.0147 108.186 47.0354 109.036 39.9435 109.036H0ZM23.7263 90.6205H39.9435C42.6551 90.6205 44.7757 89.9789 46.3053 88.6957C47.8697 87.4126 48.6519 85.6438 48.6519 83.3896C48.6519 80.9619 47.8697 79.0545 46.3053 77.6673C44.7757 76.2801 42.6551 75.5864 39.9435 75.5864H23.7263V90.6205ZM23.7263 61.8009H35.2504C37.0929 61.8009 38.6747 61.5235 39.9957 60.9686C41.3167 60.4137 42.3249 59.616 43.0201 58.5756C43.7502 57.5352 44.1152 56.2867 44.1152 54.8301C44.1152 52.7146 43.2635 51.0499 41.5601 49.8361C39.8914 48.6223 37.5622 48.0153 34.5726 48.0153H23.7263V61.8009Z" fill="#111111"/>
<path d="M115.565 110.545C107.187 110.545 99.9562 108.897 93.8726 105.603C87.8237 102.273 83.1653 97.5393 79.8975 91.4008C76.6645 85.2277 75.048 77.8927 75.048 69.396C75.048 61.142 76.6819 53.9284 79.9497 47.7552C83.2175 41.5474 87.8237 36.7268 93.7683 33.2934C99.7129 29.8253 106.718 28.0913 114.783 28.0913C120.484 28.0913 125.699 28.9757 130.427 30.7444C135.155 32.5131 139.239 35.1315 142.681 38.5996C146.122 42.0676 148.799 46.3507 150.711 51.4487C152.623 56.5121 153.579 62.3211 153.579 68.8757V75.2223H83.9649V60.4484H129.853C129.818 57.7433 129.175 55.333 127.924 53.2174C126.672 51.1019 124.951 49.4546 122.761 48.2754C120.606 47.0616 118.12 46.4547 115.304 46.4547C112.454 46.4547 109.899 47.0963 107.639 48.3795C105.379 49.628 103.589 51.3447 102.268 53.5296C100.947 55.6798 100.252 58.1247 100.182 60.8645V75.8986C100.182 79.1586 100.825 82.0197 102.112 84.482C103.398 86.9097 105.223 88.7998 107.587 90.1523C109.951 91.5049 112.767 92.1811 116.034 92.1811C118.294 92.1811 120.345 91.869 122.188 91.2448C124.03 90.6205 125.612 89.7015 126.933 88.4877C128.254 87.2738 129.245 85.7826 129.905 84.0138L153.319 84.6901C152.345 89.9269 150.207 94.4874 146.905 98.3716C143.637 102.221 139.344 105.221 134.025 107.371C128.706 109.487 122.553 110.545 115.565 110.545Z" fill="#111111"/>
<path d="M228.249 0L235.132 16.8028C232.942 18.5021 230.544 19.7853 227.936 20.6523C225.364 21.5193 222.218 22.1089 218.498 22.421C214.778 22.7332 210.085 22.9066 204.419 22.9412C198.022 22.9759 192.842 23.8603 188.879 25.5943C184.916 27.2937 181.909 30.0854 179.858 33.9697C177.842 37.8192 176.503 42.952 175.843 49.3679H176.521C178.815 44.5473 182.083 40.7497 186.324 37.9753C190.565 35.2008 196.041 33.8136 202.75 33.8136C209.738 33.8136 215.821 35.3222 221.001 38.3394C226.181 41.322 230.179 45.5877 232.994 51.1366C235.81 56.6508 237.218 63.2055 237.218 70.8005C237.218 78.8464 235.602 85.8519 232.369 91.817C229.136 97.7821 224.512 102.395 218.498 105.655C212.484 108.915 205.288 110.545 196.91 110.545C188.532 110.545 181.318 108.845 175.269 105.446C169.255 102.048 164.614 97.0538 161.346 90.4644C158.113 83.8404 156.497 75.7078 156.497 66.0666V60.2403C156.497 40.4723 160.495 25.9238 168.49 16.5947C176.486 7.26559 188.167 2.56637 203.532 2.497C207.391 2.46232 210.885 2.46232 214.013 2.497C217.177 2.497 219.941 2.34094 222.305 2.02882C224.669 1.68201 226.65 1.00573 228.249 0ZM197.066 91.3488C199.986 91.3488 202.507 90.5685 204.627 89.0079C206.748 87.4472 208.382 85.2103 209.529 82.2971C210.676 79.384 211.25 75.8812 211.25 71.7889C211.25 67.6966 210.659 64.2112 209.477 61.3327C208.33 58.4542 206.696 56.2693 204.575 54.7781C202.455 53.2521 199.934 52.4891 197.014 52.4891C194.789 52.4891 192.773 52.9227 190.965 53.7897C189.157 54.622 187.628 55.8705 186.376 57.5352C185.125 59.1652 184.169 61.1766 183.508 63.5696C182.848 65.9626 182.518 68.7023 182.518 71.7889C182.518 77.8927 183.804 82.6786 186.376 86.1467C188.949 89.6148 192.512 91.3488 197.066 91.3488Z" fill="#111111"/>
<path d="M294.524 56.1306V75.7425H245.09V56.1306H294.524Z" fill="#111111"/>
<path d="M299.657 132.601V89.424H305.654C307.462 88.5223 308.905 86.7883 309.982 84.2219C311.06 81.6209 311.912 78.5863 312.537 75.1183C313.198 71.6155 313.685 67.9741 313.997 64.1939C314.345 60.379 314.658 56.7895 314.936 53.4255L316.813 29.1317H381.683V89.424H394.197V132.601H370.002V109.036H324.479V132.601H299.657ZM330.476 89.424H357.904V48.0674H338.089L337.672 53.4255C337.185 62.0263 336.42 69.2399 335.377 75.0662C334.334 80.8926 332.7 85.6785 330.476 89.424Z" fill="#111111"/>
<path d="M422.797 76.1067L448.4 29.1317H472.909V109.036H448.765V61.9049L423.214 109.036H398.653V29.1317H422.797V76.1067Z" fill="#111111"/>
<path d="M477.99 85.6265H502.29C502.36 87.9848 503.385 89.8575 505.367 91.2448C507.383 92.632 509.973 93.3256 513.136 93.3256C516.335 93.3256 518.977 92.5626 521.062 91.0367C523.183 89.476 524.243 87.3259 524.243 84.5861C524.243 82.9214 523.809 81.4648 522.94 80.2163C522.105 78.9331 520.924 77.9274 519.394 77.1991C517.899 76.4708 516.161 76.1067 514.179 76.1067H503.437V60.4484H514.179C517.134 60.4484 519.463 59.7547 521.167 58.3675C522.87 56.9803 523.722 55.2289 523.722 53.1134C523.722 50.7204 522.853 48.7783 521.115 47.287C519.411 45.7958 517.134 45.0501 514.284 45.0501C511.468 45.0501 509.139 45.6917 507.296 46.9749C505.454 48.2581 504.515 49.9228 504.48 51.9689H480.18C480.215 47.0096 481.693 42.7612 484.613 39.2238C487.568 35.6517 491.531 32.9119 496.502 31.0045C501.508 29.0624 507.07 28.0913 513.189 28.0913C520.037 28.0913 525.93 28.993 530.866 30.7964C535.837 32.5651 539.644 35.1315 542.286 38.4955C544.928 41.8248 546.249 45.8825 546.249 50.6684C546.249 54.8301 544.806 58.3502 541.921 61.2287C539.07 64.1072 534.951 66.1533 529.562 67.3671V68.1995C532.934 68.3729 536.028 69.2225 538.844 70.7485C541.66 72.2398 543.937 74.3553 545.675 77.0951C547.413 79.8001 548.283 83.0775 548.283 86.927C548.283 91.8864 546.77 96.1347 543.746 99.6721C540.721 103.175 536.567 105.863 531.283 107.735C526.034 109.608 520.002 110.545 513.189 110.545C506.549 110.545 500.604 109.625 495.355 107.787C490.14 105.915 485.986 103.123 482.892 99.4121C479.798 95.7012 478.164 91.106 477.99 85.6265Z" fill="#111111"/>
<path d="M576.047 110.388C570.937 110.388 566.401 109.539 562.438 107.839C558.509 106.105 555.398 103.504 553.103 100.036C550.844 96.5336 549.714 92.1465 549.714 86.875C549.714 82.4359 550.496 78.6904 552.06 75.6385C553.625 72.5866 555.78 70.1069 558.527 68.1995C561.273 66.292 564.436 64.8528 568.017 63.8817C571.598 62.876 575.422 62.1997 579.489 61.8529C584.043 61.4368 587.711 61.0032 590.492 60.5524C593.273 60.0669 595.289 59.3906 596.541 58.5236C597.827 57.6219 598.47 56.356 598.47 54.726V54.4659C598.47 51.7955 597.549 49.732 595.706 48.2754C593.864 46.8189 591.378 46.0906 588.25 46.0906C584.878 46.0906 582.166 46.8189 580.115 48.2754C578.064 49.732 576.76 51.7435 576.204 54.3099L552.686 53.4775C553.382 48.6223 555.172 44.2872 558.057 40.4723C560.977 36.6228 564.975 33.6055 570.051 31.4207C575.161 29.2011 581.297 28.0913 588.458 28.0913C593.568 28.0913 598.279 28.6982 602.59 29.912C606.9 31.0912 610.655 32.8252 613.853 35.1141C617.051 37.3684 619.52 40.1428 621.258 43.4375C623.031 46.7322 623.917 50.495 623.917 54.726V109.036H599.93V97.9034H599.304C597.879 100.609 596.054 102.897 593.829 104.77C591.639 106.643 589.049 108.048 586.059 108.984C583.105 109.92 579.767 110.388 576.047 110.388ZM583.921 93.7418C586.668 93.7418 589.136 93.1869 591.326 92.0771C593.551 90.9673 595.324 89.4414 596.645 87.4993C597.966 85.5225 598.627 83.2335 598.627 80.6325V73.0374C597.896 73.4189 597.01 73.7657 595.967 74.0778C594.959 74.39 593.847 74.6848 592.63 74.9622C591.413 75.2396 590.162 75.4824 588.875 75.6905C587.589 75.8986 586.355 76.0893 585.173 76.2627C582.774 76.6442 580.723 77.2338 579.02 78.0314C577.351 78.8291 576.065 79.8695 575.161 81.1527C574.292 82.4012 573.857 83.8925 573.857 85.6265C573.857 88.2622 574.796 90.2737 576.673 91.6609C578.585 93.0481 581.001 93.7418 583.921 93.7418Z" fill="#111111"/>
<path d="M656.31 76.1067L681.914 29.1317H706.422V109.036H682.279V61.9049L656.727 109.036H632.167V29.1317H656.31V76.1067ZM679.619 0.832335H696.41C696.375 7.3523 693.907 12.5891 689.005 16.5427C684.138 20.4963 677.533 22.4731 669.19 22.4731C660.847 22.4731 654.224 20.4963 649.323 16.5427C644.456 12.5891 642.04 7.3523 642.074 0.832335H658.709C658.674 3.12126 659.456 5.20209 661.055 7.07485C662.654 8.9476 665.366 9.88398 669.19 9.88398C672.91 9.88398 675.569 8.96494 677.168 7.12687C678.767 5.28879 679.584 3.19061 679.619 0.832335Z" fill="#111111"/>
<path d="M771.784 59.1478V78.5517H730.693V59.1478H771.784ZM739.454 29.1317V109.036H715.31V29.1317H739.454ZM787.167 29.1317V109.036H763.18V29.1317H787.167Z" fill="#111111"/>
<path d="M832.74 110.545C824.362 110.545 817.131 108.897 811.047 105.603C804.998 102.273 800.34 97.5393 797.072 91.4008C793.839 85.2277 792.222 77.8927 792.222 69.396C792.222 61.142 793.856 53.9284 797.124 47.7552C800.392 41.5474 804.998 36.7268 810.943 33.2934C816.887 29.8253 823.892 28.0913 831.957 28.0913C837.659 28.0913 842.873 28.9757 847.601 30.7444C852.329 32.5131 856.414 35.1315 859.855 38.5996C863.297 42.0676 865.974 46.3507 867.886 51.4487C869.798 56.5121 870.754 62.3211 870.754 68.8757V75.2223H801.139V60.4484H847.027C846.993 57.7433 846.35 55.333 845.098 53.2174C843.847 51.1019 842.126 49.4546 839.936 48.2754C837.78 47.0616 835.295 46.4547 832.479 46.4547C829.628 46.4547 827.073 47.0963 824.813 48.3795C822.554 49.628 820.763 51.3447 819.442 53.5296C818.121 55.6798 817.426 58.1247 817.357 60.8645V75.8986C817.357 79.1586 818 82.0197 819.286 84.482C820.572 86.9097 822.397 88.7998 824.761 90.1523C827.125 91.5049 829.941 92.1811 833.209 92.1811C835.469 92.1811 837.52 91.869 839.362 91.2448C841.205 90.6205 842.786 89.7015 844.107 88.4877C845.428 87.2738 846.419 85.7826 847.08 84.0138L870.493 84.6901C869.52 89.9269 867.382 94.4874 864.079 98.3716C860.811 102.221 856.518 105.221 851.199 107.371C845.88 109.487 839.727 110.545 832.74 110.545Z" fill="#111111"/>
<path d="M876.435 139V29.1317H901.674V42.8132H902.456C903.499 40.3856 904.976 38.0447 906.888 35.7904C908.835 33.5362 911.303 31.6981 914.293 30.2762C917.317 28.8196 920.933 28.0913 925.139 28.0913C930.701 28.0913 935.898 29.5479 940.731 32.4611C945.598 35.3742 949.526 39.8654 952.515 45.9345C955.505 52.0036 957 59.7374 957 69.1359C957 78.1875 955.557 85.7652 952.672 91.869C949.821 97.9728 945.963 102.551 941.096 105.603C936.263 108.654 930.892 110.18 924.983 110.18C920.95 110.18 917.456 109.521 914.501 108.204C911.546 106.886 909.061 105.152 907.045 103.001C905.063 100.851 903.533 98.545 902.456 96.0827H901.934V139H876.435ZM901.413 69.0838C901.413 73.3842 901.986 77.1297 903.134 80.3204C904.316 83.511 906.002 85.9906 908.192 87.7594C910.417 89.4934 913.076 90.3604 916.17 90.3604C919.299 90.3604 921.958 89.4934 924.148 87.7594C926.338 85.9906 927.99 83.511 929.102 80.3204C930.249 77.1297 930.823 73.3842 930.823 69.0838C930.823 64.7834 930.249 61.0553 929.102 57.8993C927.99 54.7434 926.338 52.2984 924.148 50.5644C921.993 48.8303 919.333 47.9633 916.17 47.9633C913.041 47.9633 910.382 48.813 908.192 50.5124C906.002 52.2117 904.316 54.6393 903.134 57.7953C901.986 60.9512 901.413 64.7141 901.413 69.0838Z" fill="#111111"/>
</svg>
